<mxfile host="app.diagrams.net" modified="2024-05-22T22:22:08.887Z" agent="Mozilla/5.0 (X11; Linux x86_64; rv:125.0) Gecko/20100101 Firefox/125.0" etag="4UPhwwaQeOexDjT7BKBu" version="24.3.1" type="device">
  <diagram id="C5RBs43oDa-KdzZeNtuy" name="Page-1">
    <mxGraphModel dx="2765" dy="1456" grid="1" gridSize="10" guides="1" tooltips="1" connect="1" arrows="1" fold="1" page="1" pageScale="1" pageWidth="4681" pageHeight="3300" background="#FFFFFF" math="0" shadow="0">
      <root>
        <mxCell id="WIyWlLk6GJQsqaUBKTNV-0" />
        <mxCell id="WIyWlLk6GJQsqaUBKTNV-1" parent="WIyWlLk6GJQsqaUBKTNV-0" />
        <mxCell id="jWEjgLU3ACOmt5xkYZWo-36" value="" style="shape=image;verticalLabelPosition=bottom;labelBackgroundColor=default;verticalAlign=top;aspect=fixed;imageAspect=0;image=data:image/png,iVBORw0KGgoAAAANSUhEUgAACcQAAAMwCAYAAAAEAPF8AAAAGXRFWHRTb2Z0d2FyZQBBZG9iZSBJbWFnZVJlYWR5ccllPAAAWedJREFUeNrs3d9127YeAGDUp+/1BlUnqDtBmAniThBlAjuvfonz4tekE9iZwLkTRJmg7gRVN/BdwPcSEhgrrv9JIikS+L5zeOSb25NYIADiB/wIhAAAAAAAAAAAAAAAAAAAAAAAAAAAAAAAAAAAAAAAAAAAAAAAAAAAAAAAAAAAAAAAAAAAAAAAAAAAAAAAAAAAAAAAAAAAAAAAAAAAAAAAAAAAAAAAAAAAAAAAAAAAAAAAAAAAAAAAAAAAAAAAAAAAAAAAAAAAAAAAAAAAAAAAAAAAAAAAAAAAAAAAAAAAAAAAAAAAAAAAAAAAAAAAAAAAAAAAAAAAAAAAAAAAAAAAAAAAAAAAAAAAAAAAAAAAAAAAAAAAAAAAAAAAAAAAAAAAAAAAAAAAAAAAAAAAAAAAAAAAAAAAAAAAAAAAAAAAAAAAAAAAAAAAAAAAAAAAAAAAAAAAAAAAAAAAAAAAAAAAAAAAAAAAAAAAAAAAAAAAAAAAAAAAAAAAAAAAAAAAAAAAAAAAAAAAAAAAAAAAAAAAAAAAAAAAAAAAAAAAAAAAAAAAAAAAAAAAAAAAAAAAAAAAAAAAAAAAAAAAAAAAAAAAAAAAAAAAAAAAAAAAAAAAAAAAAAAAAAAAAAAAAAAAAAAAAAAAAAAAAAAAAAAAAAAAAAAAAAAAAAAAAAAAAAAAAAAAAAAAAAAAAAAAAAAAAAAAAAAAAAAAAAAAAAAAAAAAAAAAAAAAAAAAAAAAAAAAAAAAAAAAAAAAAAAAAAAAAAAAAAAAAAAAAAAAAAAAAAAAAAAAAAAAAAAAAAAAAAAAAAAAAAAAAAAAAAAAAAAAAAAAAAAAAAAAAAAAAAAAAAAAAAAAAAAAAAAAAAAAAAAAAAAAAAAAAAAAAAAAAAAAAAAAAAAAAAAAAAAAAAAAAAAAAAAAAAAAAAAAAAAAAAAAAAAAAAAAAAAAAAAAAAAAAAAAAAAAAAAAAAAAAAAAAAAAAAAAAAAAAAAAAAAAAAAAAAAAAAAAAAAAAAAAAAAAAAAAAAAAAAAAAAAAAAAAAAAAAAAAAAAAAAAAAAAAAAAAAAAAAAAAAAAAAAAAAAAAAAAAAAAAAAAAAAAAAAAAAAAAAAAAAAAAAAAAAAAAAAAAAAAAAAAAAAAAAAAAAAAAAAAAAAAAAAAAAAAAAAAAAAAAAAAAAAAAAAAAAAAAAAAAAAAAAAAAAAAAAAAAAAAAAAAAAAAAAAAAAAAAAAAAAAAAAAAAAAAAAAAAAAAAAAAAAAAAAAAAAAAAAAAAAAAAAAAAAAAAAAAAAAAAAAAAAAAAAAAAAAAAAAAAAAAAAAAAAAAAAAAAAAAAAAAAAAAAAAAAAAAAAAAAAAAAAAAAAAAAAAAAAAAAAAAAAAAAAAAAAAAAAAAAAAAAAAAAAAAAAAAAAAAAAAAAAAAAAAAAAAAAAAAAAAAAAAAAAAAAAAAAAAAAAAAAAAAAAAAAAAAAAAAAAAAAAAAAAAAAAAAAAAAAAAAAAAAAAAAAAAAAAAAAAAAAAAAAAAAAAAAAAAAAAAAAAAAAAAAAAAAAAAAAAAAAAAAAAAAAAAAAAAAAAAAAAAAAAAAAAAAAAAAAAAAAAAAAAAAAAAAAAAAAAAAAAAAAAAAAAAAAAAAAAAAAAAAAAAAAAAAAAAAAAAAAAAAAAAAAAAAAAAAAAAAAAAAAAAAAAAAAAAAAAAAAAAAAAAAAAAAAAAAAAAAAAAAAAAAAAAAAAAAAAAAAAAAAAAAAAAAAAAAAAAAAAAAAAAAAAAAAAAAAAAAAAAAAAAAAAAAAAAAAAAAAAAAAAAAAAAAAAAAAAAAAAAAAAAAAAAAAAAAAAAAAAAAAAAAAAAAAAAAAAAAAAAAAAAAAAAAAAAAAAAAAAAAAAAAAAAAAAAAAAAAAAAAAAAAAAAAAAAAAAAAAAAAAAAAAAAAAAAAAAAAAAAAAAAAAAAAAAAAAAAAAAAAAAAAAAAAAAAAAAAAAAAAAAAAAAAAAAAAAAAAAAAAAAAAAAAAAAAAAAAAAAAAAAAAAAAAAAAAAAAAAAAAAAAAAAAAAAAAAAAAAAAAAAAAAAAAAAAAAAAAAAAAAAAAAAAAAAAAAAAAAAAAAAAAAAAAAAAAAAAAAAAAAAAAAAAAAAAAAAAAAAAAAAAAAAAAAAAAAAAAAAAAAAAAAAAAAAAAAAAAAAAAAAAAAAAAAAAAAAAAAAAAAAAAAAAAAAAAAAAAAAAAAAAAAAAAAAAAAAAAAAAAAAAAAAAAAAAAAAAAAAAAAAAAAAAAAAAAAAAAAAAAAAAAAAAAAAAAAAAAAAAAAAAAAAAAAAAAAAAAAAAAAAAAAAAAAAAAAAAAAAAAAAAAAAAAAAAAAAAAAAAAAAAAAAAAAAAAAAAAAAAAAAAAAAAAAAAAAAAAAAAAAAAAAAAAAAAAAAAAAAAAAAAAAAAAAAAAAAAAAAAAAAAAAAAAAAAAAAAAAAAAAAAAAAAAAAAAAAAAAAAAAAAAAAAAAAAAAAAAAAAAAAAAAAAAAAAAAAAAAAAAAAAAAAAAAAAAAAAAAAAAAAAAAAAAAAAAAAAAAAAAAAAAAAAAAAAAAAAAAAAAAAAAAAAAAAAAAAAAAAAAAAAAAAAAAAAAAAAAAAAAAAAAAAAAAAAAAAAAAAAAAAAAAAAAAAAAAAAAAAAAAAAAAAAAAAAAAAAAAAAAAAAAAAAAAAAAAAAAAAAAAAAAAAAAAAAAAAAAAAAAAAAAAAAAAAAAAAAAAAAAAAAAAAAAAAAAAAAAAAAAAAAAAAAAAAAAAAAAAAAAAAAAAAAAAAAAAAAAAAAAAAAAAAAAAAAAAAAAAAAAAAAAAAAAAAAAAAAAAAAAAAAAAAAAAAAAAAAAAAAAAAAAAAAAAAAAAAAAAAAAAAAAAAAAAAAAAAAAAAAAAAAAAAAAAAAAAAAAAAAAAAAAAAAAAAAAAAAAAAAAAAAAAAAAAAAAAAAAAAAAAAAAAAAAAAAAAAAAAAAAAAAAAAAAAAAAAAAAAAAAAAAAAAAAAAAAAAAAAAAAAAAAAAAAAAAAAAAAAAAAAAAAAAAAAAAAAAAAAAAAAAAAAAAAAAAAAAAAAAAAAAAAAAAAAAAAAAAAAAAAAAAAAAAAAAAAAAAAAAAAAAAAAAAAAAAAAAAAAAAAAAAAAAAAAAAAAAAAAAAAAAAAAAAAAAAAAAAAAAAAAAAAAAAAAAAAAAAAAAAAAAAAAAAAAAAAAAAAAAAAAAAAAAAAAAAAAAAAAkIsfFAEAAAAAAAAArO/mJOzXHwf1NUnX0FzV12zvLFy7WwCUQkIcAAAAAAAAADzTzckiAe51fVVhmQw3dDEZ7o/6+igxDoASSIgDAAAAAAAAgCfcnIRp/fEuDHMnuOeIu8W9lBQHQO5+VAQAAAAAAAAAcL+bk3BYf3wI402Ea8Td7C7r66W7CkDO7BAHAAAAAAAAAHfcnIT9+uO8vg4z+2pv9s7ChTsMQK72FAEAAAAAAAAA3Lo5Weym9mfILxkuOnKHAciZI1MBAAAAAAAAIEnJcF/qaz/Tr3jgLgOQMzvEAQAAAAAAAEAoIhmu+Z6Vuw1AriTEAQAAAAAAAFC8UpLhACB3EuIAAAAAAAAAKNrNySIJ7jxIhgOA0ZMQBwAAAAAAAEDp3tXXgWIAgPGTEAcAAAAAAABAsdJRqcdKAgDyICEOAAAAAAAAgJJ9UAQAkA8JcQAAAAAAAAAU6eYkVPVHpSQAIB8S4gAAAAAAAAAo1WtFAAB5kRAHAAAAAAAAQHFuTsJ+/TFVEgCQFwlxAAAAAAAAAJSoUgQAkB8JcQAAAAAAAACU6JUiAID8SIgDAAAAAAAAoEQTRQAA+ZEQBwAAAAAAAECJKkUAAPmREAcAAAAAAAAAAEAWJMQBAAAAAAAAUJSbE7vDAUCuJMQBAAAAAAAAAACQBQlxAAAAAAAAAAAAZEFCHAAAAAAAAAAAAFmQEAcAAAAAAAAAAEAWJMQBAAAAAAAAAACQBQlxAAAAAAAAAAAAZEFCHAAAAAAAAAAAAFmQEAcAAAAAAAAAAEAWJMQBAAAAAAAAAACQBQlxAAAAAAAAAAAAZOFHRQAAPMfNSdivPw7qq6qvn+trkn5uzOtrVl+f9s4WnwAAAGKpk0XsNHlGLPW+jqXmSgwAAABgOz8oAgBg1UriW7x+Xvl5f42/5uPeWXirNAEAgMJjqWrNvyYmxZ0qTQCAXsZvcaz2peAieOnldgByZYc4ABDwT9L1Iqyf+PaQ4/rvDpLiAACAzGOpX8NmLxE95F39d1/XsdRHpQwAAACwGTvEAUABbk4WizOTsFykeRFuk+C69osjfwAAgJHHUk08JZYCAMhrrFcFO8TN1AQAcmSHOADIK4CfhNvdCeJOBc3/3pWj+rJLHAAAMPRYavUloiHEUof1ZZc4AAAAgA1IiAOAEUqJb/Gq6uvnlZ+H5sDdAgAABhxLHQw0bnkVJMQBAAAAbERCHAAM2M1J2A+3CzTNYk2lZAAAAJ4dSzU7vomlAAAAAAogIQ4ABuLmZLE4MwnLxZpm4WZfyQAAADwZS62+RCSWAgAAACiYhDgA2KG0cHNUX4dKAwAA4Nmx1DQsjxUVSwEAAADwHQlxALADNyeLneDOgyN7AAAAxFIAAAAAtEZCHAD07OZkcXzPl+AIHwAAALEUAAAAAK3aUwQA0Lu4m4EFHAAAgGe6OVnEUJdiKQAAaM2VIgAgVxLiAKBHNyfhuP44UBIAAABribHURDEAAEA79s7CtVIAINvnnCIAgF69UgQAAABre60IAACgNXNFAEDOJMQBQL8qRQAAALC2iSIAAIDWOC4VgKxJiAMAAAAAAACAcnxVBADkTEIcAAAAAAAAAJTjsyIAIGcS4gAAAAAAAACgDFd7Z2GuGADImYQ4AAAAAAAAACjDH4oAgNxJiAMAAAAAAACA/M33zsKFYgAgdxLiAAAAAAAAACB/7xUBACWQEAcAAAAAAAAAeZvZHQ6AUkiIAwAAAAAAAIB8XdfXW8UAQCkkxAEAAAAAAABAvt7unYUrxQBAKSTEAQAAAAAAAECePjoqFYDSSIgDAAAAAAAAoDTzAr7jxd6Zo1IBKI+EOAAAAAAAAACKsne2SIibZ/wV4zGpb9xpAIp8zisCAAAAAAAAAAr0KcPvdF1fv++dhY9uLwClkhAHAAAAAAAAQIli0th1Rt/nc339sne2+ASAYkmIAwAAAAAAAKA4e2eLZLiXYfxJcbP4Perv83v6TgBQ9jNeEQAAAAAAAABQor2zcBWWSXHzkf3q8feNO9z9Vn+HmAw3czcBYOlHRQAAAAAAAABAqVJS3C83J2Faf76qr/2B/qrx9/ynvmbpdwYA7iEhDgAAAAAAAIDi7Z2Fi/rjQkkAwMif6YoAAAAAAAAAAACAHEiIAwAAAAAAAAAAIAsS4gAAAAAAAAAAAMiChDgAAAAAAAAAAACyICEOAAAAAAAAAACALEiIAwAAAAAAAAAAIAsS4gAAAAAAAAAAAMiChDgAAAAAAAAAAACyICEOAAAAAAAAAACALEiIAwAAAAAAAAAAIAsS4gAAAAAAAAAAAMiChDgAAAAAAAAAAACyICEOAAAAAAAAAACALEiIAwAAAAAAAAAAIAsS4gAAAAAAAAAAAMiChDgAAAAAAAAAAACyICEOAAAAAAAAAACALEiIAwAAAAAAAAAAIAsS4gAAAAAAAAAAAMjCj4oAAIAxuTkJB/XH/j3/1/XeWbhSQtnd1/tc1ff6Wqmh3YRJ/TF54P+e1+1krpQYSF2N/fuBvh1ALEXv40L3Fu3jJFQ9/nPaHDCEONucEEDtB0UAAL0GKf8r7CvP6sDrpTtffDB+d9Hl53D/RH3V0q8QF9Nn9fWf+vpscX0ndaC6c09X7/lzkiK2dZXqwaqvd/un1f9ePWFAfedqG3nRQR/ZmKdrte/86542YkGHdfv5SXg4UXOb/jz+/N+VumuCXywlliLHen63DxVLlVsHVuvCryv1oK3n7HV6toY7z9nmz40BGUvM1EX76HqeIo5h/1mNu+r2NnOHQf8WzAkBtEpCHAD0G9hYxGHM9bcJvFcXZZrAvI8kp03EYP6P+vpoMaf1+jBJ9zxezQR0lcFXayapVyeCmj+TfEEbbWf/TtuZjKjtfGsLYbmAM0+XpNL86+rPKz/vD7BezlOffZXqo75aLCWWYuix1E8r8dMkDDOBYxFL1fXw1B3srE409/7FgGPqb+O9NP67Mvajh/ZxkNrGasx0UMBXv14Z28b2NjMPAdmOAcwJAfRAQhwAJQYcu1zI+1JYcccg6e0O/32TRusH4yEF4c0CzVAn5Tepiy8F5xvXjUmqBy/SZ1V4kXzbNSEsEzC+TVrrc3ig/VQr7SfnhZzZSrto2oQ3icc1Rl6tq5OR99OzVBdndtwQS4mlNvv3jZ3XjqWa2EksxX1950Fm48F5qhtfU3/hWcu28dKv5huenIP4msa4ntHljH9bqT/i8kH0ceaEAHZAQhwAJQUe7+rrcOQBLOub19enYIewpi2MZbeXToJyu2ysVU9ifxkna6ow7qSIXWiS5b6G24lrE9ZltZ/Ybl5pP9+1iWZXkZn2MJi6upoAd1jCOCAsjwCcmZTfOJaaKo0iY6m4Q9hHRfHdUZax7/xJLMUTdWU1niplHmqWYqDPnrWYb+glxlqMbyWkdlZPj+vrKJM+3Aka/dad2LeZE/q+vzInBOyEhDgASghCpvXHuZIQeNXXm5ImZVeOYGnesi1lseYxv9d14LPmcG99ifXjdQjftu2nfd+S44LjhnJrP82izqtQRmJRW8/leDU7eFk07aeuNvW0GSOUal5fcTzw1bjgyTpzGpbJcOizi9ohbOUoq+Yloko1CL95Xj9ZZ5qx4ESJLPqL+IxtktHFPGW3j0lqG6/NN3TW3mapvX3W3raur7GOxp2J9zOtKy89z1uvM+aENosvzAkBnZMQB0Duwcg0SIbj+6D/lxwnhjI9gqUL8U3It4rhu3oTJ6Qt2uzWPF2L44bCMklurlhG0YYOV9oQ2z+jZ6kdmAxtv542E/N2Sr6/7sUF+z/Uu3/VnQ9huTMGhJBxUtzKjpm/iqUe9b6+/6eK4bu6U62MBT1jH7dIjqvr0IWiKKZ9TIIkuJ22tyA5btMxQa7JcKvxj6S49mJtc0Lt1cvmaGg7zQKtkRAHQM4BSZUCWFg1+qNeVo49jXW8OWKCQu5/C/VnEpZHnsUJm4kqMVirE0GS5IbXho5SO7Lw2Z1Y3x15vn09lfC8fr2LRwldlF7v0uLOpSrBHbFtvMkglqrC7ctEYqnn83KReKqtOEciet5tpGkf+lftbYz190shdddR6NvH2rGvMyfUbWz+KcUfc8UBbEpCHAACWEo0uqNe0qJks2DjzdrNFTvh463FLMzD98cJzBRJr20o9r9H2lDv4iJO3JHmo6J4Vj2dBguQbbkIBS8e1nXp7yDRg/v9MqZFqZUEOLGUWEo8NTzxGRsT0e1iNf72EccM0xQvSRAZcHuzS+OTMX9JL9e/NK+0dv0wJ9S/69R3nSoKYBMS4gDINUCJk9x/KgkeMPijXlaO7XkVLGq3qahFnLQAGCdq3gWL2tnW6XC7k9zMQlIn7ahKbUhfvFt2pXm8r5+G5eS8vr6bfvZ9SYtFdtrmCW+HnqScYqnmuGgJcGIp8dTwLRa7g52Bx9hGJql9TJXGaMyDnbgfqs8f6o9jMTb3xEbmhNRXYKR+VAQAZEqAwmNeDDTAbhZtYv2duE1sUZfiwk2cxPN2dhnPuyrd73jvY3LcLCx3kbPTwnbtKJarSc/hOK7vySdH/ejrd9XP1uUd+9ZSEuP0ezzm14H2h1WKpQ71iXjGjs5+Gne/q8v+Ij1v54pl0G1kEiTCjVVz747q+ygR9XsHvi8r/VwVzAkNSZwT+o9dDYF1SYgDIFcmLBlDYN28bd4s3EAbdcrCTdkOwu2k5nlKkItvf3+2qPTsdhTLL74ZXimNwYnHlF2po/r6HYl9QmmJcXCfiViKzJ+zp56xOzWNV30fPqbnrUSd4Y1D34WydtHKVXMvX9f39b2jVOFbP2dOaLjinJA4HFiLhDgAgP4D6yoFcFOlQYv1KtYnR/lwV5Mg90ESx5NtyOLOOOqzvl5fv2txHBcT4z6H5dGRc0UCvcdSMVlJEhyesXmLY/KYGPdH/aw9VRyDaCPHqY1IFs1L7PPiy3RHaWxrvoBS+zhzQsNnV0NgbRLiAAD6C6yrYKt1uqlXH0wK8AyxrjS7G72RxPFdO5qmdmRxZ/h1WF/PUMRknMO4o0Zw1BT00Q8epn5wojRouW7ZCWa4FskJ9T2KLxTGRJ3PikQboTPxPn+xOyOF9nPTYE5oLP0UwFokxAEAdB9Ux2D6PNjFgPbrVZysmSoN1lTV1591HXq5d1b28ZN1GUxS/1ypFgy4r/eW+rA1R029saMGeFbjGUsnYj9waXfWnbST09ROKEfsEw+NbTHOBCAHe4oAAKDTwDq+ufR3kAxHu/XqMNWrqdJgQ02ibunt6M9g4pPh9/UW6odvEpY7alymBAvAs5ph160q1S3P2HFZ9Anp6E66bSOT+optRDJc2WPbD4oC40wAxkxCHABA94G1hVHaqlP7cbG9/vFSvaIFB+lYiBLb0bl2hL6eDiySGFOiBbBdXzjVD9LRMzYmeHwJjt8dq8VO6fV9/CIJvbN20sxlOZqO45gYmXbRgpzGAuaEAAohIQ4AoJvgOk4cnisJWqxTVVhOStttkDa9KrBvjgugU7eeAddRff24xUUVO2qAWIrhjgPtLpaHGB9LQm+/nZwGSSJ8bxGfaGtkNhaYKg2AMkiIAwDoRlzAMYFIK9KRMHYxoAuHBbWjaWpHdjpgyH39n/r6bNhRAzZ3qQgwDuQZmiT0U0WxdRtpdih2RCqPtbWposBYAIAxkRAHANBNgC24po261ExK22WGLuvZpIDveBokKqOvp3/Njhp2/IP1YqmJkqDFOnVuHJi9d45Q3W4sGpZJIsYrPOXcLsiMtJ87NRYAKJOEOACA9r1SBGwrJSmZlKYPk8zbUpz0tNMBQ62fB/r67MVFl0u718CzHSkCWnrGxoTzuPPqVGkUoQrLHay8nLhmOwl2TGI9xynGhrH0c+aEAAomIQ4AoH0WtdlKmsSPizcmpWHzdmQRlDH09RYgyxF3rzm3ew08/uzWJ+IZyxYW911S3Fp9rnbCJqaS4hhDHxd3Dw3mhACKJiEOAKDdYNtEItvWoZhQGSdsLJjD5u3I4g5Dr6PTsEx81teXJd53R7rBwzy3aSsmNw4sV3zG/pnGWoiX6HBcKymOEfRxldIAKJuEOACAdlngZGNp0v5SPYKt2pHFHcbQ11s8Kleze41nPUD7z9gmGU4fy7mkOPESnZMUhz4OgEGTEAcAAAMgQQJaaUcmPtHXMwaxj/rbzsIArT5jJcNxl6Q48RLdi0lxx4oBfRwAQyQhDgAAdkyCBLTSjkx8oq9nTBZ9lqQ4gFaesZLheIikuO99EC/RRb3SzhjAWMCcEAD/IiEOAAB2SIIEtNKOTHyir2eMJMUBbP+MlQzHUyTFLdvKaf0xVR3oyAdjWnbYv5kTAuBeEuIAAGBH0mShBAnYnp0OGHJfP9XX84gmKW6iKAA2iqckw/EcMSnusOC2UtUf71QDOh7TXqbEJOibOSEA7iUhDgAAdmBl8QbYri3Fic+pkmCg9TPWTclwPMUCIsD6z9hJkAzHes5L3MEqjS8u3X56MBH7sIM+zpwQAA+SEAcAAD1b2crf4g1s15am9cexkmCg9bMKFoR4vkWivKQ4gGfHU5fiKdZU6q6s2gp9OqzbmBidvsYD02BOCIBHSIgDAIAeSYaD1tqSI4cZev20Ewfr0q8BPM9lcDQamylqV9aUmFS57fTsXYGJp+wm5hY7AfAoCXEAANCvuJW/xRvYgmN/GEn9lPjMJg7TsT8A3P+cjX1kpSTYQhFJFCkh6Z3bzQ7sB4lK9BNzA8CjJMQBAEBP0lb+UyUBW4uT6xPFwEBdqp9s6TiNGQD4dzzlaDTaUMKxjjF51Asa7EpVt7FDxUBHzAkB8CwS4gAAoAdpK387vsD2bSkuXJlYZ6j10641tOVDGjsAIJ6iu2dtlWl7qcRMDMB5KccT02v/Zk4IgGeTEAcAAB1LE4Dx7UUTgbBdW7IQypDrZ5yUt2sNbVmMHSwiAoin6FSuz1rHVTKU8az4iDbHA3FOyFHQADybhDgAAOhenKyxywtsz8IOg3RzsjiuRf2kbRZ8AMRTdCu7MVw6Wnji1jIQRylWgjZIjgdgLRLiAACgQ+moEm/EwvZt6TRYCGW4TMzTleO0+yCAeAq6cZjZs1YyPUOyr07S0njgNJgTAmBNEuIAAKAjK0f7ANu1pUn9caQkGGj9jIv0lZKgQ45OBcRT4Fn7nDYzDXaHY3imdoljy74t1h9zQgCsTUIcAAB0JyZJTBQDbM3uWwxSmpi34wFdi/3fB8UAFOideIoen7XnmbQZUDfJjTkhADYiIQ4AADogSQJaa0tVsPsWw2Vinr5MU38IUNIY0FGp9GnUR6faHY4RjGXFTWw6HhAHAbARCXEAANANR/uAtkTGHJWK/hCgU3bGZCf1bsRJO17IY+gkOSMGAqBXEuIAAKBl6a3ySknA1m1pGuxywDDrZlwotehI3yZ13TtVDEABz9mYNHGgJNjFszaMMGkn7aAkbmLoXisC1uzbpvo2ALYhIQ6AXM0VAY+4VgR0zG4GsKWUcKQtMeR+3pE/7MJRDzvXGCvzmCtFQA9jQEnn7PpZOxnZ7yzRiDGYjPlYYnYyHjAnBMBWJMQBkKuZIuARXxUBXfH2IrQm7swg4Ygh9vNxx5qpkmBH+lgY+qyYecRfigBjQAp41o4mKTMljRibMhaSNzEeAKA3EuIAyPMBd7bYIe5CSfAAi3x0yW4GsKW0qHOkJBgob6mza9Mud65JsZTxMmIp7pr3MAaciKco4VnbMjtuMSaHPex2zMiZEwKgLRLiAMjZ2+A4F/7tY1rko0yd3nu7w0FrYlsySc7g1P18VX9USoIB6Dph5E1wdCr/9r6OpdSLcv2TQd8GOdZHSSOMMd6Hp+qIOSEAtiYhDoB8H3LLifqXQVIct2JdeK8Yitb1cbkWcKAdFnUYKv08Q9H1LnFNLDVX1DSxVF0vThVD8fF0Z1KfNlXMlPKsbbHdHLhVjIxjU3mKOSEAWiEhDoC8H3S3CzkflUbx4tE+L+1oULTr0OERT3aHA22J7OtmFewOx7B0mqBZj5tj8stv9XWhqIt3keJqyjWv+4Suj8uVdE5xz9oWOC6VMToY0ZHE9B93T4M5IQBaIiEOgPwfdmfhur7i8am/hOXuYHaMK0eTABUT4X6XDFe8tx3XAW8vQju8Lc5QWahnaDrfuSbFUm9SLPVRLFVcLHWRYqk3YimxVJd/ud3hKPlZu6UXbhEjVSkCHmBOCIDW/KgIACjF3tniuJ/TdO3EzUn4X2HFPqvL3U4C7FpcvIvJcBcdtu0qOKYE2mhLsR1VSoIHzHdYNyt1c7OxYHoO/3XnzxqTcPv2/0/pWbr6ZzwtJuS/7fofSbHU211+UbEU7CyWetPD7nBTRc2AxZci3gz0d7NDHGP1KtiFmH+P980J8Zi5IgDWJSEOAIBcxR1MPtXXRQ87Wnh7Edphp0UeM9vhv213uKddp3v0NSwTeTbeSezmJOyH5ULIi/Qp6fxhceea93bvAsYaS6U+3xiQITus6+nboT1r699JMtzz+rLr9Pnfnv7Nn8PtCx4Tt+BBlSLgHsYDPGamCIB1SYgDAGBIgezdXWQ2CoL3zvoLkNMCztStXMtVuv4JtxPU87T7zKb34L5kiWrl559W/puH/nt2KN1Hizo8ZLHb547q5iRYsHlM3DXoU5u7B6UF58/pWj1KLyagTxT5/9m7t+uosbRhwBpW37f/CLqIABMBRQRjIsCOAHzrG+wb3wIRUESAiaBFBG0iGBHB50nA82vbKijssl3l0mGX3udZS8tMTx+sV/usV3v/Zt52zoQCzKW2bS7V2GvaMsi5r03jkA+Z/V6OS12+1vC1uP44oxz6l7nxkceecezv9Srtwp3DcyIP1oR4wGBrQsB2kxAHAEDbqoXrR/Hra9yr/++xSU8Z2/fIHzRPbJgvTLf6ZX3z7yuX/F/lQ/9scxzDPEEu/ZzvRkT/vAxd32Jy6WJ5P19Wz5qkoskK/95ldWAxqfS+v6+rNuTlgLty2B1uuVl9nfTRrzf/jeN0NbuhvNFW3yqjM2EAc6ktZTeYzcZI8w+M7kuGnO9Y5cOgzcppbglxxkK/j0s/brJDcUdj2MWPPA6NY5eW4VIYaFgTWt9aa0JzKRn1gX/vXeOFZzee0aToJ9F36DUhYItJiAMAYFOz4jrRqcpt8bEnXuDcrSyuF6XPcv0FF8psOf9rl0fF/zy6QfxbCB70M7n0MfWqeYlerVh317Jkp8Z5kmmyuGi6+NdXbUcOhkoA8JX6nf3+yVDPpCn7Z80LxfeFnTaSiR02wFxqGzUfp0jQWt3P3a+KB152PxD3aRP3+cdAEhC2rK+9Z5f0iGsOh9vSft4Yx35S9+xyyG+sCT2slQ+OV+zL1l5zWvjouCh+T5Zb/MBysuYcPv2uByP9KATogYQ4AAA29TnqC9hmoj9RBG5J5eHEi3nWqEupHkk6ur9OpbZ2lusvuGSnxnKF5z5t/jhZaEvTS5FvzZ/PMni55Sv1X6rieiG6zKTMpZeJ6XdJu6O99XiujpPV74K51LbxcdHD0ljoczMuqlrqQ8umz/jQjMnSeCclIuwL99b0tZLh6vJbl+WtPD5vYRz7d/BnqRwzXxvwIdr9yiLzNaGmbTtf87nPE+iWJXlftDn2AeKSEAcAAI/3Wgh+UxUZJUuwVSx8LpcWEw/HWqe25L68qL921rTvF5mVofT7pOOn0hfyX4rYyYt7dRwOHSMDGAOORhon9fKR0cKuVSfFdVLcm8IHAbn3tdPgzyI9hw/bfAOpHNXl6WUROyluJyXEBD1tAuOBVYx9Tej8xpoDQPttjRAAAMCjWbD5ZVZfzyXD8UiOSrktvQBVpwbkGLef0gL8q5wTrZp68rwoQr9Ms6sCsG397H4h6WqZ1Je9rPu2l32PA9MuLPV1XP/xaTO/I9++9lng5zDb9mS4hTqXxtcpKa4K/DzNt0gcl3qbNSGANsZbQgAAAOtzXOpv0q5BB3al4ZF1SRLH76riOrn0WCgGZxfQ6/Z9K144NkeppBeKkZPivEgCtFnbLYuX32lel+Z3hUSdnMtt1CSiq92Bx3RDzTrKQeA6NdGsxGZN6JbU71oTAmhrrCUEAADwKBIlrqVkiZkwsAELn7+kRJ7njoxRNrXvj7Owy0bUOrTXvFACyJqX37dcFBm+/F7YgdUxZvn1tZOg8R/l8fBNXSuDPlO7xWM88Is1IYC2x1lCAAAAj2LBRjIc7bAAfm1+PJadFjNgF9Dtbd8lxRmfANqqLRwDPs315XezW9yrwhGq2ZTfepw6DRr3auTrDydBn2vkORfXrAn9Gg9YEwJoez4jBAAAsJ7Lo6sFu0nwMJxIhqMlXoha+MxR5F1AP2x7+75w9FTEOuUIQmAbePm9ZWPA5ghV8788yu8kaNw/jvnmml3iIn7QEbU884s1IWtCAN2NsYQAAADWFn2xpsztOB+2U7MLV/Tj/a52s7LwqZ3PqH0/HMONNDvtHCq7ANqqTG3dy29JcdmU30nQuEcoe5+DrgtMNSsxWRO6Yk0IoMs5jBAAAMDaIu9oMN91B9owFYLilYXPvAQ+LjWVw1djuqFmp7uzgGVYogmQcxuVxn9efm/py+8mKe4s+PPbGTiB51nAmJ8FmTNFrVvR+4TIpkJgTQig0/mLEAAAwNqmge89HZVaKQK0JPpxWSfN0Tho43NwMNKF+IhHpzqKENDP5m3bd4JJfWulHA8mYvLQ1wg32ay1RDw2dVe3EJY1IWtCAN2Or4QAAABWF3w7/+rJafFBKaBF08D3Xjl6OFv/DnjP6ajUUe5I0SQcnAR7nnaIA/Sz+TpsjvXe9r71lXI8mIjJQ6V7hVGaBr53a0IAfcxdhAAAANYyDXzvJx4/bbk8ujqSMvLRKI4e1s4rjz1pkrmrQM9z0rSxALmN/9LYL/JOQOVYPjBqkvoifyy125TnIUSbQ1XBdqn/FrA+2d045phgUlgTAqDreYsQAADAWqIu1KVF6JnHT4umge+9dCxGni6PQu6sNQvykjFaUvdUjQa0Tdk5HGHfehH4efae3DlgEt6Qzt0vGBOMjDUhgJ5IiAMAgPVE3dHA7nC07Vnge1eftPHKY8+apO5IL+3ttAHoZ/PyYduPSl3St6Z+9TDwM52qQ734Hulmg+2GNzfRPYZkTQiA7sdWQgAAAKtpvsaeBLz1C7vD0YGoL0TPfQmctWhJRGfBXrp9DHSvU9UZ0M/mM58qRvryu5knVsozXc6fAt5ztPniRDEPyZoQAN3PV4QAAABWFnWxZubR04Fp0Pv+6NErlxn5rD8brUnQY9UA/WyW479mN7WxirrTza4q3YsL9wzGBGMaE3j0AP2REAcAAKubBr3vzx49bbo8CvsFeHqxcaYEZFsuo7Xx1ZPTWOWx2Q0v0i4jUzUbyKifjZw8NBt5/zorYibw7AxQrsP17UF3UvpewLjHBJOgt25NCKDvsaQQAADAyp4FvOeUMHHu0dOySdD7Phv57iDbLtqL+qgL8Z+VaQBtUo9mQY4nnynXwGMFT5qOaBL0vq0JAfRMQhwAAKxuEvCefblIF6ZB7/urR5+1aEnPUXf/jNSvvVCtAf2s/rYnUY+Am6janaqC3nfEjxJ3FPdQpkHv25oQQM8kxAEAwOoifrHquFS68FfICfipBFNtfDbC7v4Z7NhUO20A2qTh+9tS/zpqks87rkNB79sOUoydNSEA+ml7hQAAAB52eRTyy+8Lx6XSkYj1ycJn/iK9qC+DP+so979Tj1/stgHoZ43/+hLxY6qJqg2g7TQmAMiThDgAAFjNJOA9lx47HYn4QvSbx56vy6NwZTJ6efyuvQXotZ9NybkRE3SjJYhFnD9O1HAAcxRzcIA8SYgDAIDVWKyB9kR8IVp67FmbBLvf6Lt/RqqPEuIAbdEwwu223dxvFe1BXx4V0x7/c39qToARsCYEQD9zFCEAAICVRFyscVwqrQu4E9f15Nvxw7mLVC7DH4dd33+V4hDkdv9SvYEMTALecxn0WUe87z7XCiS6A1vNmhAAvba/QgAAACt5EW6ycOrrRTrhS2ByFClpyEJ8rDh4cQ7kYBLwnqPuth3xvvW1AKuzJgRAbyTEAQAAy0iYoCt2WyRHE+VRvdTmAnTmWcB7LvWvYTjGFMD8RN8IkCEJcQAAsJpoX31brEFdas8Pj125zMh/Pe5QcbBrDZCDcC+/ox6NFvS+9bUA2sz7WBMCGGp+IgQAALCSaC9xLNZAeySYauNzUnrcserl5ZFd4oDBTYLdb/S+Ntr962cBMPcEyJCEOAAAYBmLNXTlr4D3XHns+bo8sqtHUBeB7lUZB4Y2MZcy9tXPAlBYEwKgRxLiAADgAZdHxTTgbV948nRkEm7ifWrxM3M7wcpj6ZFfUS8B6MoP9w8AS02i3bA1IYAB22AhAAAAbk0UJExAWySX5s8xVzH7uSrQ7U49cWAoQT8uir5DXBmwnE/UdgCWsCYEMCAJcQAAANAdxw/nzzFXAECbKiEIZyIEACxhTQhgQBLiAADgYZNg91t55HRI8hEMpxSCkP4UAoD+RD8azW7jANzDmhAA/c1NhAAAAB40CXa/lUdOh3bUJzIjWSiuKPXTSydgSNNg9+toNHMcALSX0eacAFmSEAcAAADd+SEE2ZMsFFclBAC0zNFoMeNgPAnAMtaEAAYkIQ4AAAAAAIC22CkPAAAYlIQ4AADgpm9CAACjMRECgN5UQgAAADA8CXEAAAAAMF4TIQDojaPRrtkhDgAAGNQfQgAAAAAENo10r5dHxf88cgB69EIIQvpeX3vCAAAADMUOcQAA8DAvcYDHOhcCAAAYtT+FAIAlrAkBDEhCHAAAAHTHcVEAADBuu0IAwBLWhAAGJCEOAAAAAAAAAACAUZAQBwAAAAAAAAAAwCj8IQQA1y6Prra23xGJ9T05LUpRAAAAAAAAAACGJiEOCOfy6CrpbVpfL+prt7kkwm0W0+Ssvj5KjgMAAAAAAAAAhiIhDgihSYLbr6/XxXUCHO3bS1cd65Mnp8WxcAAAAAAAAAAAfZMQB4za5VExqX+8K66T4ejHu7RjnKQ4AAAAAAAAAKBvT4QAGKOUCFdfn+o//qeQDDeElBQ3FQYAAAAAAAAAoE92iANGpTka9W1xvSscw3pTX6UwAAAAAAAAAAB9kRAHjMblUbFb//hSXxPRyMKeEAAAAAAAAAAAfXJkKjAKl0dXu8L9U0iGy+257IoCAAAAAAAAANAXO8QBW605IvVTYTeyXO0IAQAAAAAAAADQFwlxwNZqkuH+ri+7kAEAAAAAAAAA4MhUYDtdHl0djSoZDgAAAAAAAACAn+wQB2ydJhnun8JxnAAAAAAAAAAALLBDHLBVmmNSvxSS4QAAAAAAAAAAuEFCHLA1mmQ4x6QCAAAAAAAAALCUhDhgm3wqJMMBAAAAAAAAAHAHCXHAVrg8Ko7rH3siAQAAAAAAAADAXSTEAdm7PCqm9Y93IgEAAAAAAAAAwH0kxAFZuzwqdorro1IBAAAAAAAAAOBeEuKA3KWd4SbCAAAAAAAAAADAQyTEAdlqjkp9KxIAAAAAAAAAAKxCQhyQs/dCAAAAAAAAAADAqiTEAVm6PCr26x+7IgEAAAAAAAAAwKokxAHZuTwqdgq7wwEAAAAAAAAAsCYJcUCO3tbXjjAAAAAAAAAAALAOCXFAjl4LAQAAAAAAAAAA65IQB2Tl8qjYr39MRAIAAAAAAAAAgHVJiANy80YIAAAAoDXnQgAAAABAJBLigGxcHhW79Y9dkQAAAIDWlEIAAAAAQCQS4oCcvBYCAAAAaNVHIQAAAAAgEglxQE72hAAAAABa8+HJaVEJAwAAAACRSIgDstAclzoRCQAAAGhFWV8nwgAAnbsQAgCW2BECgOFIiANyYXc4AHL2TQiAR5oKAdCzqr4OnpwWL+vLC3oA6N53IQBgiV0hABjOH0IAZOKFEAAAAHTqvL4OhWHUKkekAhn2PVNhCOcvIQAAAIYkIQ7IxVQIAAAAOnXx5PTqGE0A6Mt/g93vnx75lYkQAAAAQ3JkKjC4yyPJcACQmWdCAARSCgEA0BJHowEAAGRAQhyQAwtFAJCXHSEAAAAAAABgG0mIA3LwlxAAADBSjs0iJ1MhAIBO+bgo5pij8sgBWMKaEMCAJMQBObBDHAC5q4Ldr5c4YKwLANCGc2M/AqiEAADjAoC8SIgDcuClOwC5q4Ldr8UaulQKAdp4AAjjItoNXx7FXuus7998EoC7lEIAQF8kxAE5sEgCAMBYTYQgez8i3ezlkTIJAB2LvtYZMSHwQrEHYAnzb4ABSYgDAABuuTwqpqIArZgIAcokAIGdB7zn6H1tuLnkk9OQ5RwAYwKAvMfpQgAAAA8Mmk9t5w8tcmwWuamC3e/EIwegx7lUxJ2zove1fyr5ANwh4pqQOTjAQP4QAiADpRAslY5X8PIUgKFM9dF05Ht97QUc16lP+aqC3e/EIweATr0Ifv/RjoytFHmAlUVcE5roKwCGISEOGNyT0+KlKCzXfDmyX19vCslxAEO7CNYW/+WRQ2skxOXfvkfyzCMHoGdpHDQNdL+T4M97Gux+K1UcgHtYEwIYiCNTAXJupE+Lqr6O6z8+r69zEQEYVLR2eOKR05Eq4D1LMM17zB2tfd/11AGg27lU1OPR6vuOOM64UOQBVlYFvGdrQgADkRAHsA2N9enVJCHtpCcpDoC+TIWAjlQB71kCUv4ivchML+ntPg1An74Z/7nvEfuuigOsrNI3AtAXCXEA29Jgn169pDsQCYDBhHuJE/TrfroXcQcFdSl/0T48mXrkANCpF+47jEpxB1iZNSEAeiMhDmCbGu3r45zORAKAnliwoavxTDQ7EkyzVwW73xceOQA9KgPe8zTos45435UqDrAaa0IA9NrvCAHA1vkqBACDKAPes4QJuuKLYHLzI9j9Tj1yAHpURRz7XR4Vk0g33LzsnwR81ueqOMBaIq4JmYMDDEBCHMD2qYQAYBAWa6A9EV8aSTBVJnMS7iU9AMN5chp2LWvP/HH0LuryfaGWA5h/P8CaEMAQc1EhAACAFQbOMbf0n0iYoCNVwHve89iVSWUSgMDKgPf82v2Ont3hAMy/VzH12AH6JyEOAABWF3GxW8IEXfgR8J53mmOkyFDQpOfXnjwAPaoC3nOYHVmb+4w41pUQB7C+qGtCU48eoF8S4gAAYHVVwHu2pT9diPriSAJS3spg9+vYVAD69D3ofe8Huc83QZ/vD1UbYG1R14T+7dED9EtCHAAArC7iS5y9y6Nix6OnZVXQ+7bjYt4iLsq/89gB0M92KsoHEfvKNQArqoLe975HD9AvCXEAALC6Muh973v0tDoRPQ374mhyeSQpLmOSngGgu/Ff1LlUGv+Nej7V3N+Ocg3Aim1n1DWhHWtCAD33OUIAAAArs6sBtKdUn9DGDy69vH7r0QOgr+3UO/enPAPwmzLofb/x6AH6IyEOAABWHTyfFhdFzG39dy+PiqkSQMuivkBKO3JNPP4s2/hUJi8C3vobu8QBYPzXqdHuEtfcV9SxbalKAxgTrGlqTQigPxLiAABgPXaJg3Z8D3zv7zz+bJUB7zklw7336AHowTfjP/dlPgNAYU0IgB5IiAMAgPVEfYmz7wtGWhb5iCH1SRufY5mcevwAdKwMfO9pl7jjMd1Qcz8T5RmAR4i+JrSrCAB0T0IcAACspwx8775gpL3JaNzjKec+KQXa+My8d3QqAB2P/6r6RxV5PjWWF+DNfUSeH1ZNeQbgcWOC6GtCdmkH6KO/EQIAAFhjAB17wcYOQrQt8hfB07o+7SkC2viMRH+xDUA/yuD3/8l9KMcAhG9LrQkB9EBCHAAArK8MfO++YKRN34Lf/yc7cmXpLPC9v7UoD4DxX6d26752q5PJ6t8/zQmjH/X2VVUG2Nj34Pef1oQmigFAdyTEAQDA+iK/xEkvcN4qArTkLPj9p2S4L4qBNj4zn8ZynBsAxn+ZSjtv72/jL9783uaDdogDMCbYnDUhgI5JiAMAgPVFX7B5L1mCViaksY+nnJtu+y4h2vjRSYvyf2vnAeho/JfGfqVIXCWg72/TL9z8vsatdfltyjEAm40JrAmNYOdYgKz7GiEAADo0EQJGOYg+Lar6RxU8DF8c9UhLSiG42iXEAmg+bXxakJcUJykOgO44bvLa1iTFSYZTfgE6UgqBNSGArkiIAwC6NBECRuxM/b5KlpAUx6a8ULpmAVS5zM08KW4qFACYS3UmJcVlfQSpZDjlF8Dcu3PWhAA6ICEOAPpVCQGMxmchuNo5SFIcmyqF4KerBVB1KgtedF6bJ8UdCwUMMs6CUWp23D4XiZ/e131tljtwNy/nvaD/5bwpvwC0oxSCn6wJAbQ99xQCAOhVJQQwkoH06dULnAuR+JkU56Utj61LqW/0QvSXfXUqi3Lp2NTfvavL5D/KJfTKizDGzgdGv9urr39y2Zk19fmp72/Gpii3AF3NvavCmtCi1O9aEwJoq58RAgCgS/XkbSIKjNhMCK7Mk+LeCgWP5MXS7TqVXoge+zJ4UI5uWV4ufbHOUEohgFGReH7bpJlXfRlqLSX18c2ucP8UdqpUbgH6YU1o+dz7vbk3wGYkxAEAXZsIASNmweaXtECTFmp8xchjeLG03Lv6+k+ExLi0G8qNazeTcmkn0Nv2m3L53ocP0HnbaEzFaDU7whgDLrfX9LWf+toxLvXpTSLcfwq7wt05NnRcKkBnc29ue1tYEwLYyB9CAAB0LE1eSmFgjNKxqfUEvSokfi6aFtdfMc7qnx+bo2XhobpU1WXmvLALxTJp0TMlxr1r6tXXOl5bsVh84wXu/M9/LjznyX3tZ/3Pp2S0j/X1oTnCtO9yeVH/DinW+4rh0nKZFuffNjH6vC3lMrM6slgHFv/8rPh1XOb0xj923lxfxTyESeEIKcYt7ca6Jwx3SmOQ/WbOmcZEZZvzq6YfSv3M6yX9DcvLKwDtz72tCd0/97YmdOpjReBxJMQBQL++FfEWGZ957Ixc2iXunTDcsl9cv7wpmxid5bx4sbBIM/XoBpMWuT4Jw0r1KimbcUX6edF28umNRJ25tBB7c4H6xQP//ybmC7+v69/n1UAJtp8LCXEPSYkMe81i9dm8XEbaQWVJfbn5vxfryW5RbPR1/25zzfvYV14OjNqLwo4ZjFjdfs3SjqMbtosRpD7lfdPnVM3473txnTBbrdLnNjvL7Db/rmfNvEfiwerSeHsmDACdsSb0sP3i9prQfCxgTQhgCQlxAEDX0kvSA2FgxGaFhLj7TJvrU/Pifp7Ac97XC/yFZLfFhZn5gs2miQm0J73wt/i5ft1615TzuXLFf77thcouTeorHcf8tO/En/q/V/pSfWWpTO031/yFfYrd/IV9epFcDvkLLiQDrFMnni3pJ3LpO1Ib8KW+XgYpYxE/LkpzqUPNCwHmU2+FYa1x0f6N/u2+caD5TnvlFIDuWBNafy44XTIWuJp7rzh/tyYEjJ6EOACgazv1ZGXfl7SMVbOtf1q0cdTPw6bF7wk8aRFjvlDz/cbfWy78Mw/5q/j9q8VtWtThV126aI5/2BeNjevZKMcTxfXL8uMB/tu+VH+cSXP97B8XFunn7X+b5SNquz+t47rra/nx1qOU2D90Min00M9KiDMO3IZyCkBHrAm1Zqzz4iHXhIAtJiEOGEzzdf60GaAt++o+B+lFzdci82Pe2CpRX1S9TwlD6hEjlhbHJcStbz4WKJbEz657MTmekvu8LoZZ/ExJz45z6679Z3N7QeYZUecSaZfd5+ZSjFXzgdHMGJCMnUU6Ch5gQNaEuM9Qa0LAFpMQB/SqSYLbbwYu2/KlQnq5kJJ5Dp6cXr0Mg01EfYmR6n7a1vqVRUTGqDlSL5XtiWiAukRnJgOVy/Slekp8lqgLw4r6cdHEXIoAvAAnZ3aHA+hn7m1NiIfmRQDr9S1CAPShHsSmYz7SMUP/V1zvrrBt2/amZJ4v6dhHT5MNVYHvPdX7/6S2IB37oygwQidCAOoSo/VBCICB51L/1POo9+ZSjFFzLHApEmSodGw1QK+sCQHQGjvEAZ27PLrawvZNMY4jhlIiT2UhhMdqjgKJbj9dTRyqotskwbQj3/f6OrfDIz3U71ldrtPuQRPRgI3rkuMpya1cXjjODQZ3Hvz+U7/4Nl3NXOq86HYH8jRP+1FIBqE/6QX4VBjIsFwC0N/c25oQAK2REAd0Ju0KV//4UmzfbnAPSckOpSfMBqpCwszcpIdY7DVtUnpZdFJPqu3wQpfSUSrvhQFaqUuOpyQ36YXovjDAMJrEVH7pa63lXXN01aGPjOi4jqdj0spCUhz5kBAMMAxrQgC0M88UAqALl0fXx3kU40uGS6ZNsh88ViUEg0hflb1vjm+GrsyKbnfqgCg+qEvkJu3027TzwHBKIRjEpL6+NLt1QJfsxoXyCIA1IQBaISEOaN3l0dWuCSkZbsxbGk89aTZwLgSDSse17gkDnQyuT68Waw5FAlqpSx9FggylF6MW5mE46t+w0nGtU2GgwzFgWUh8JQ92hwMYbjxgTQiAdvoUIQDa1CyMRth9aeJps4EfQjA4W67T3QD79Gr3oEokYGO+CCbHNj617xbmYTjfhWBwb4SAjvnAiBzYHQ5gWNaEANiYhDigNc0xqV9EAh5kh7jh7QoBHbN4DptOVn0RTL4szIO5VGRTIaDjMWCq5zORYEAzu8MBDD4esCYEwOb9iRAALUo7w+0IAzzISxwY+yD7epe4UiRgYynxqBIGMmvjHY8Nw9EnDM+6D31I/azkc4aQyp0P3ADyYE0IgI1IiANacXlUHBd2XILVOt/rl6gmcjB+kiWgnT7TCylyLJuzQuIzDFH3fFwExoDQpY91+auEAcB4AIAR9CVCAGzq8qiY1D/eiQRLeFkhNhB3oH39wvaDSMDGdWlWSDwiTxKfYRj6BIgxBvygvtOz87rcHQsDQFbjgZnxAACP7keEAGiBZDjumqw43uJu34QAQkhfMVbCABuTeESOY93zwtfqYC4FdOlACFDeAMKzJgTAo0iIAzbS7A63LxIsIRnufnaIgwiD7evEYIvqsHldknhErmXz2LgOzKWAzvrZqvASnH6cOJYbINvxgDUhAB7XhwgBsKF9IeAOFpHun8SVhaRBiFTfHZ0Km0v1qBIGMnRgXAe9KoUAQs2nHJ1K1xyVCpA/a0IArD+fFAJgQ6+FgDs4xuZhpRBAGI5OhU0nr3ZcJN+y6Wt16L8/8AEWxCL5nK6YYwBszxxAew3Aev2HEACPdXlU7NY/JiLBHbygeJikQYgy6L5etHklErBxXSoLiUfkWTbT1+ozkYDefBUCCNXPVoWX4HTDUakA2zMeKAtrQgCs03cIAbCBqRBwj1IIHnQmBBBo4H29yH4oErBxXTouJN6Tp0NlE8ylgM7GgKnefxAJWjRrPmoAYHvGA8fm3QCs3G8IAbCBZ0LAHc6a3ZC4f/JWmbxBuHpvByFoR9px0ViD3Nr4C2UTeqtvaR5ViQSEq/sp+bwUCVrggzWA7WXeDcBqc0ghADYwEQLu4Pia1X0WAgjHDkKw6UTWsVnkXTZfFhbnoQ92iYOY0kvwShjYwNVHDD7mBdjqefcrkQDgwT5DCIANTISAJdJikhcTqxMriDYAt4MQtFWXUh96IhJkWDbtOAL98HERmE/BY7xqkikA2N7xQGneDcCD/YUQABuYCAFLzHxhudbErSoc9wFR674dhGDzunRcOIaYPMtmKpd2MYRu61lKPrXrLsSt/3aG4TEOmiQKALZ/PPChsCYEwH19hRAA0LKPQrA2OxtAxIG4HYSgrbqUko4kRJBj2ZwVkuLA/BPoqp8t9bOs6bAZnwEwnvGANSEA7u4nhACAFn1w5MCjJm2z+oe4Qdz67yUObC7tuGgBFO08xJOOz7bjLuhn4SGzZichAMbHmhAAy+eMQgBAS9JLiBNheDS7xEHUAbmXONBGPUrjEAugaOchZvtvlzjQz+pnuc+s2UEIgPHOCawJAXC7jxACAFpy0kw8eJz0lar4QdRBuZc40EY9umjqkf4U7TyYSwH6WUgkwwHEGAuk+cAr8wIAfusfhACAFpSOHWhlwmZnA4jdDswKL3Fg03qUvgZOXwVbACXndl75BHMpwHyK7kmGA4g1FqgKa0IALPYNQgDAhua7sbC5lFRYCQMEHpx7iQNt1KOUFPe8cFQG+bbzFuihm7mUegX6WfMpfvYLkuEAQo4F0lrQ08KaEACFhDgANnfQfHnD5pO19ALnUCQgfFswK66TebzUhcfXozQ2SUlHFkDJsXxK2oRu5lInIgE08ylHpsWW1iqtrwHEnhtYEwJAQhwAG0lfW54JQ6uTtRTPUiQgfFswP/axEg14dD2yAErO5bNqyqexNLRXrz5o84GmPTgznwopjf9fNUmRAMQeC8zXhErRAAjcHwgBAI8087VlZ9KRDr5khugD9V87CJWiQccuRlyPLuor1aOZx0ym5TPtYGNMDe3OpQDsyBpPVV8vfbgLwI05d0qKm4kGQNC+QAgAeIS0mOjFXXcTtUp8gaY9mC/cOAKMLsvZeYB7PNC3knH5TLtapRf2lWhAK32a9h5YnE+lPvaDaIxamcZSEeY1ADxqPGBNCCBqHyAEAKzp6hi/ZstpupukzQpfLgG/2oTj4nqbf20vXfTrUerRB/WIjMvnfBcb4z9op723QxCw2C6kl+CvjANH6SR9RGadEoAV5gjWhACitf9CAMAaJMP1O0k7KBztAfxqE8r6x9PCC17a9TloPSo9ejIsnxfN+M8Lex4zT+N35lLAzX42zaOeGweORlVc7wp3LBQArDgWSGMAa0IAkdp+IQBgRbN0zIRkuN6lr5a8yAGuB+/XyRIpUSLtcKA9ZlOpDM2C1iNHEZNzGU0v7NMivePdWJX5wpK2vrADBHC7baiacaD51Ha7Om7eEakAPGaeYE0IIFC7LwQArOCk2a2CASZohaQ44HbbkF4A2C2OTR1ETnRvdpN4ro8l1zFgc7ybcSAPSckdlTDcO5eS9AIsm0/ZLW4L+7zi+uSKQx/sArDhWOC4sCYEMP72XggAuEdaXHrl+IHBJ2eS4oClbUOzW1xqHyoRYQ2pvLxsdqGKXo/O0w64hS+DybeMlk0ZPSgk9bCc9uuBdr6QFAcsbx/mu8W9Mp/KXmrD08e6T5vj7gCglbmCNSGAkbf1QgDAHcri+vgBuw/lMTmTFAfc1T6kZIm0W5xjf3hI1ZST514k3apHx8X1rovikn8ZjlpGZ00ZPdHWs2DWlA3urz/nTf0xlwKWtRFp3eu5Pjbfvq6ZvxwLBQAdjQWOC2tC26ASAmDtNl4IALghLf6lowdeOnonu4nZPCluJhrAkjZifoyqFzksSn15Khsvmx0VPjhe6M46NN8lxK6L+ToPXkYvFhbqtfWknXIOhGHtuZQPvoD7+tiUGDcTkSyUzRzmwPrkrfkdAO2PBawJ5c8HTsD67bsQALDg6qvYJqmCPCdmF82LL8dmmZjBXW3EcSFZIrKquH6JN98JLiXBHdoRbq16NN918aCwCJqbr0KgrdfGXz3zp3bKeXTdedX0keRbxqPRhufVTlTNmsvTQmLcUNK85WXzoa45zG0/gt3vt6hzUkUdhqt/1oSyZU0IWNu/hAB4rMuj4n+Bb/9kqBcQddyn9Y+/W/7Xls09mWxvVx2c1D8+1ddUNNaWXob9vw6fzT/1j12xJIN2Yqf+8ba+XtfXRERG6by50ouC0u4JndSj/frHO3Vo+LJel+/nwnBvW/+mvnZEZFSqZq6mjW+/3uw2c6ld0cirPa6fzX8C9bnmUvm3FZOmf93Xx3ZuVl+frU2uNDf5FOiWXzXHGkd81pHWFlMS0r8yiPlxM/eP4sRHNiu3u9aERj4HAcbrDyEACK0sJMJt80JBVf94aVL2KF0vpn0s4ixQOnYq73Yi7ThxnK6mrUiJcVOR2Vrpec6T39LP0vGnvdSjWf1j1tSh9EJU8sQwY9ZXwrByW6+cbq/zprx/LyTAdV1vUqyf13XmbTOXkuiyXpvcpc9FnJfRHxWn7NuK1A4f1m1F2p1z3sdORKbV+U0aa3/U560srcG8D9JvVVGT4Rb6CGuL/ZoVsRLiZprUlcYCKU7WhIaff1gTAh7FDnHAo9khbqt3iEuDeF9djqs+2hlkPU+7XmwN8iVnWrx+buF669qLSdNW7BVe5uQu9dPphX1KjDhvXt4zfB1KY7GUXLovGp1LZf5jswDNeuV0d6GtNzbMU7XQxpfmZuZSxv+/PY+/g8ylnvq4wVgw8DznszHeo8vgcREjaedV8IS4SLvEPc9lvaOO+acg7fuHOuaHWlTjgMxZEwI2JiEO2GTgFzkh7uVQLyw2SIhLg8f0pfXMguuo6+VO4avlhxz0MYkK8iIn/OLkCNqMlCjx70LCxNDmO79JftvOPvd14QvhNqUx9tf6OpNw3VpZ3V9o6xlGtdDGl007b06WZ7vuqPk85lK7zVxqrOPTVP9fGu+Nos3Y08eubL4uaYzXTvkbe6JUWr8+8JxH3x8mWR3bGWQ997wZh5iPbF5W9gtrQm1L8+W0JlQaKwNtkBAHbDLgkxA3TNynxWoJcRc3Bo+VUhuuju41EzILs7/qxGGfXxQ1E+MvxfiOqEyxPJAMN8o240Vh57iupb459ck/5n/WR4+i/qQ686Zp7y2ErtefpHpgh6z+xiXzF/eprEqE7q6dP2/a+atkZy+btrK+7BeSXIaeS02audTuCGMpGU4fG4UkuG7L3BjXm5KsEqQyeNapH/w00nlmls965PUrreUemJ90Mm61JvS4cXGaP1sTAjojIQ7YZJAXNiGuHpj9a8C4p0H13zcGjefNz+/Fr5culVLKwiQ+8lfLF81k/2SoejGiF2opfmkx+4OFk9G3G5OmvKYEudTveKGzfrsz3/Htv4XEt8j1RyLF7XrxzXg1m7I6LX69uLdov/6YqCp+T3zTzptLjbXtnjVzqYuBnsFY5lKpnfhqLqWPDdA/ls1470xZ77WN3PZ5+7zsnBhP3fusXxfbn6S1Nc+6acvfjKB+zZOOPko46qXcTAprQneVQ2tCQO8kxAGbDOyiJsSlgdpzJYAtrrvzCdluMb4v3arm+jb/s4k+tNJu7DZtxrztkDjxKxl9Memt0OawpP5Mm/52Xn/GnmC6mBBqh6ztKac7C2PDKGX1IfP2/NvC/76wq1P4ejKvI9MRjoduzqUc4Q762FX6yp9HgnuxDQC3xgHTwpqQNSFgMBLigE0GclET4tLXvIdKACOblKXJ2LPi+pjE6Rb82mXxa1fEqpD4BkO1HZPmSos68xc9226+cFMUv5Ldfv41bQ0t1J15Uum87mzjgmh5o45cJYiqH6Mrq5OFseGzppxOR3BrVXMl3278NQlvRJtLab9huD5290b7kfNcat5PSpgFgM3GANaEAHokIQ7YZOAWNSHuVT2wO1MCGHn93lmYjM0XZV8s/C3THiZU85c088nVVUKKr4kg+/ZjUhS/XX22H4uqori1Q8G3hT8vJr5JdCOHujO9o99drEtd973L6srPftmLTzIYJxY3xoY3/9p/7yjXjjMl8lyqNNaBUcyluvoAaXHelH7+WJgrGf8BQD9jgGlhTQigdRLigE0GaBET4tKLlKeePtxqDzZZmJXkBrHbj0nx+IUdizGoM+uPZStRZAvKrPYddWQFktwgfPsxNR4EAHMHYwCA5STEAZsMvCImxJ3UA8ZjTx8AAAAAAAAAID9PhABgZWkHqw/CAAAAAAAAAACQJwlxAKv76FhHAAAAAAAAAIB8SYgDWM25o1IBAAAAAAAAAPImIQ7gYWlXuANhAAAAAAAAAADIm4Q4gIcdPjktzoUBAAAAAAAAACBvEuIA7peS4WbCAAAAAAAAAACQPwlxwCbGvmvayZPT4oPHDAAAAAAAAACwHSTEAZsoR3xvB09Oi2OPGAAAAAAAAABge0iIAzbxcYT3VNXXc8ekAgAAAAAAAABsn38JAbCJy6Piff3j7Qhu5aK+PtoVDgAAAAAAAABge0mIAzZ2eVR8qn/sb+mvnxLhZsV1MlzlaQIAAAAAAAAAbC8JcUArLo+udol7V187W/DrpiS4sr6+1tfZk9Or/w0AAAAAAAAAwJaTEAe06vKo2Kt/7Gb665X1dfHktDj3pAAAAAAAAAAAAAAAAAAAAAAAAAAAAAAAAAAAAAAAAAAAAAAAAAAAAAAAAAAAAAAAAAAAAAAAAAAAAAAAAAAAAAAAAAAAAAAAAAAAAAAAAAAAAAAAAAAAAAAAAAAAAAAAAAAAAAAAAAAAAAAAAAAAAAAAAAAAAAAAAAAAAAAAAAAAAAAAAAAAAAAAAAAAAAAAAAAAAAAAAAAAAAAAAAAAAAAAAAAAAAAAAAAAAAAAAAAAAAAAAAAAAAAAAAAAAAAAAAAAAAAAAAAAAAAAAAAAAAAAAAAAAAAAAAAAAAAAAAAAAAAAAAAAAAAAAAAAAAAAAAAAAAAAAAAAAAAAAAAAAAAAAAAAAAAAAAAAAAAAAAAAAAAAAAAAAAAAAAAAAAAAAAAAAAAAAAAAAAAAAAAAAAAAAAAAAAAAAAAAAAAAAAAAAAAAAAAAAAAAAAAAAAAAAAAAAAAAAAAAAAAAAAAAAAAAAAAAAAAAAAAAAAAAAAAAAAAAAAAAAAAAAAAAAAAAAAAAAAAAAAAAAAAAAAAAAAAAAAAAAAAAAAAAAAAAAAAAAAAAAAAAAAAAAAAAAAAAAAAAAAAAAAAAAAAAAAAAAAAAAAAAAAAAAAAAAAAAAAAAAAAAAAAAAAAAAAAAAAAAAAAAAAAAAAAAAAAAAAAAAAAAAAAAAAAAAAAAAAAAAAAAAAAAAAAAAAAAAAAAAAAAAAAAAAAAAAAAAAAAAAAAAAAAAAAAAAAAAAAAAAAAAAAAAAAAAAAAAAAAAAAAAAAAAAAAAAAAAAAAAAAAAAAAAAAAAAAAAAAAAAAAAAAAAAAAAAAAAAAAAAAAAAAAAAAAAAAAAAAAAAAAAAAAAAAAAAAAAAAAAAAAAAAAAAAAAAAAAAAAAAAAAAAAAAAAAAAAAAAAAAAAAAAAAAAAAAAAAAAAAAAAAAAAAAAAAAAAAAAAAAAAAAAAAAAAAAAAAAAAAAAAAAAAAAAAAAAAAAAAAAAAAAAAAAAAAAAAAAAAAAAAAAAAAAAAAAAAAAAAAAAAAAAAAAAAAAAAAAAAAAAAAAAAAAAAAAAAAAAAAAAAAAAAAAAAAAAAAAAAAAAAAAAAAAAAAAAAAAAAAAAAAAAAAAAAAAAAAAAAAAAAAAAAAAAAAAAAAAAAAAAAAAAAAAAAAAAAAAAAAAAAAAAAAAAAAAAAAAAAAAAAAAAAAAAAAAAAAAAAAAAAAAAAAAAAAAAAAAAAAAAAAAAAAAAAAAAAAAAAAAAAAAAAAAAAAAAAAAAAAAAAAAAAAAAAAAAAAAAAAAAAAAAAAAAAAAAAAAAAAAAAAAAAAAAAAAAAAAAAAAAAAAAAAAAAAAAAAAAAAAAAAAAAAAAAAAAAAAAAAAAAAAAAAAAAAAAAAAAAAAAAAAAAAAAAAAAAAAAAAAAAAAAAAAAAAAAAAAAAAAAAAAAAAAAAAAAAAAAAAAAAAAAAAAAAAAAAAAAAAAAAAAAAAAAAAAAAAAAAAAAAAAAAAAAAAAAAAAAAAAAAAAAAAAAAAAAAAAAAAAAAAAAAAAAAAAAAAAAAAAAAAAAAAAAAAAAAAAAAAAAAAAAAAAAAAAAAAAAAAAAAAAAAAAAAAAAAAAAAAAAAAAAAAAAAAAAAAAAAAAAAAAAAAAAAAAAAAAAAAAAAAAAAAAAAAAAAAAAAAAAAAAAAAAAAAAAAAAAAAAAAAAAAAAAAAAAAAAAAAAAAAAAAAAAAAAAAAAAAAAAAAAAAAAAAAAAAAAAAAAAAAAAAAAAAAAAAAAAAAAAAAAAAAAAAAAAAAAAAAAAAAAAAAAAAAAAAAAAAAAAAAAAAAAAAAAAAAAAAAAAAAAAAAAAAAAAAAAAAAAAAAAAAAAAAAAAAAAAAAAAAAAAAAAAAAAAAAAAAAAAAAAAAAAAAAAAAAAAAAAAAAAAAAAAAAAAAAAAAAAAAAAAAAAAAAAAAAAAAAAAAAAAAAAAAAAAAAAAAAAAAAAAAAAAAAAAAAAAAAAAAAAAAAAAAAAAAAAAAAAAAAAAAAAAAAAAAAAAAAAAAAAAAAAAAAAAAAAAAAAAAAAAAAAAAAAAAAPj/7MEhAQAAAICg/6+9YQAAAAAAAAAAAAAAAAAAAAAAAAAAAAAAAAAAAAAAAAAAAAAAAAAAAAAAAAAAAAAAAAAAAAAAAAAAAAAAAAAAAAAAAAAAAAAAAAAAAAAAAAAAAAAAAAAAAAAAAAAAAAAAAAAAAAAAAAAAAAAAAAAAAAAAAAAAAAAAAAAAAAAAAAAAAAAAAAAAAAAAAAAAAAAAAAAAAAAAAAAAAAAAAAAAAAAAAAAAAAAAAAAAAAAAAAAAAAAAAAAAAAAAAAAAAAAAAAAAAAAAAAAAAAAAAAAAAAAAAAAAAAAAAAAAAAAAAAAAAAAAAAAAAAAAAAAAAAAAAAAAAAAAAAAAAAAAAAAAAAAAAAAAAAAAAAAAAAAAAAAAAAAAAAAAAAAAAAAAAAAAAAAAAAAAAAAAAAAAAAAAAAAAAAAAAAAAAAAAAAAAAAAAAAAAAAAAAAAAAAAAAAAAAAAAAAAAAAAAAAAAAAAAAAAAAAAAAAAAAAAAAAAAAAAAAAAAAAAAAAAAAAAAAAAAAAAAAAAAAAAAAAAAAAAAAAAAAAAAAAAAAAAAAAAAAAAAAAAAAAAAAAAAAAAAAAAAAAAAAAAAAAAAAAAAAAAAAAAAAAAAAAAAAAAAAAAAAAAAAAAAAAAAAAAAAAAAAAAAAAAAAAAAAAAAAAAAAAAAAAAAAAAAAAAAAAAAAAAAAAAAAAAAAAAAAAAAAAAAAAAAAAAAAAAAAAAAAAAAAAAAAAAAAAAAAAAAAAAAAAAAAAAAAAAAAAAAAAAAAAAAAAAAAAAAAAAAAAAAAAAAAAAAAAAAAAAAAAAAAAAAAAAAAAAAAAAAAAAAAAAAAAAAAAAAAAAAAAAAAAAAAAAAAAAAAAAAAAAAAAAAAAAAAAAAAAAAAAAAAAAAAAAAAAAAAAAAAAAAAAAAAAAAAAAAAAAAAAAAAAAAAAAAAAAAAAAAAAAAAAAAAAAAAAAAAAAAAAAAAAAAAAAAAAAAAAAAAAAAAAAAAAAAAAAAAAAAAAAAAAAAAAAAAAAAAAAAAAAAAAAAAAAAAAAAAAAAAAAAAAAAAAAAAAAAAAAAAAAAAAAAAAAAAAAAAAAAAAAAAAAAAAAAAAAAAAAAAAAAAAAAAAAAAAAAAAAAAAAAAAAAAAAAAAAAAAAAAAAAAAAAAAAAAAAAAAAAAAAAAAAAAAAAAAAAAAAAAAAAAAAAAAAAAAAAAAAAAAAAAAAAAAAAAAAAAAAAAAAAAAAAAAAAAAAAAAAAAAAAAAAAAAAAAAAAJhJgAIMaFcg7BYJhAAAAAElFTkSuQmCC;rotation=-90;" vertex="1" parent="WIyWlLk6GJQsqaUBKTNV-1">
          <mxGeometry x="-267.8" y="274.02" width="799.71" height="261.03" as="geometry" />
        </mxCell>
        <mxCell id="2q9IEAr4ZzkcC6MikMml-13" style="edgeStyle=orthogonalEdgeStyle;rounded=0;orthogonalLoop=1;jettySize=auto;html=1;entryX=0.5;entryY=0;entryDx=0;entryDy=0;" parent="WIyWlLk6GJQsqaUBKTNV-1" source="UMjWkie3BbWeerTwhCgO-0" target="2q9IEAr4ZzkcC6MikMml-11" edge="1">
          <mxGeometry relative="1" as="geometry" />
        </mxCell>
        <mxCell id="UMjWkie3BbWeerTwhCgO-0" value="Start" style="ellipse;whiteSpace=wrap;html=1;fillColor=#d5e8d4;strokeColor=#82b366;" parent="WIyWlLk6GJQsqaUBKTNV-1" vertex="1">
          <mxGeometry x="260" y="80" width="160" height="70" as="geometry" />
        </mxCell>
        <mxCell id="UMjWkie3BbWeerTwhCgO-4" style="edgeStyle=orthogonalEdgeStyle;rounded=0;orthogonalLoop=1;jettySize=auto;html=1;entryX=0.5;entryY=0;entryDx=0;entryDy=0;exitX=0.5;exitY=1;exitDx=0;exitDy=0;" parent="WIyWlLk6GJQsqaUBKTNV-1" source="2q9IEAr4ZzkcC6MikMml-0" target="UMjWkie3BbWeerTwhCgO-3" edge="1">
          <mxGeometry relative="1" as="geometry">
            <mxPoint x="340" y="380" as="sourcePoint" />
          </mxGeometry>
        </mxCell>
        <mxCell id="UMjWkie3BbWeerTwhCgO-3" value="&lt;div&gt;Initialize default values:&lt;br&gt;&lt;/div&gt;&lt;div&gt;&lt;br&gt;&lt;/div&gt;&lt;div&gt;&amp;nbsp;&amp;nbsp;&amp;nbsp; iterations := 1&lt;br&gt;&amp;nbsp;&amp;nbsp;&amp;nbsp; update_time := 2&lt;br&gt;&amp;nbsp;&amp;nbsp; &lt;br&gt;&lt;/div&gt;" style="rounded=1;whiteSpace=wrap;html=1;align=left;" parent="WIyWlLk6GJQsqaUBKTNV-1" vertex="1">
          <mxGeometry x="270" y="500" width="140" height="80" as="geometry" />
        </mxCell>
        <mxCell id="UMjWkie3BbWeerTwhCgO-12" style="edgeStyle=orthogonalEdgeStyle;rounded=0;orthogonalLoop=1;jettySize=auto;html=1;exitX=0.5;exitY=1;exitDx=0;exitDy=0;entryX=0.5;entryY=0;entryDx=0;entryDy=0;" parent="WIyWlLk6GJQsqaUBKTNV-1" source="UMjWkie3BbWeerTwhCgO-3" target="2q9IEAr4ZzkcC6MikMml-1" edge="1">
          <mxGeometry relative="1" as="geometry">
            <mxPoint x="340" y="640" as="sourcePoint" />
            <mxPoint x="350" y="610" as="targetPoint" />
          </mxGeometry>
        </mxCell>
        <mxCell id="UMjWkie3BbWeerTwhCgO-25" value="&lt;div&gt;&lt;br&gt;&lt;/div&gt;&lt;div&gt;&lt;br&gt;&lt;/div&gt;" style="edgeLabel;html=1;align=center;verticalAlign=middle;resizable=0;points=[];" parent="UMjWkie3BbWeerTwhCgO-12" vertex="1" connectable="0">
          <mxGeometry x="-0.3083" y="-1" relative="1" as="geometry">
            <mxPoint as="offset" />
          </mxGeometry>
        </mxCell>
        <mxCell id="UMjWkie3BbWeerTwhCgO-23" value="&lt;h1&gt;PAP&lt;/h1&gt;&lt;p&gt;Programmablaufplan bis Abschnitt 5, Programm Version 1.5&lt;/p&gt;&lt;p&gt;Im folgenden PAP und deren einzelnen Anlagen sind nur die im Hauptscript aufgerufenen Methoden.&lt;/p&gt;&lt;p&gt;Klassen, aus denen diese einzelnen Funktionen kommen werden im PAP initialisiert, deren &quot;__init__&quot; Funktion wird hier allerdings nicht aufgelistet sowie die Klasse nicht näher beschrieben.&lt;br&gt;Diese sind unserer Meinung nach außerhalb des scopes eines PAP, welches die grobe Struktur des eigentlichen Programms darstellen soll.&lt;br&gt;&lt;/p&gt;&lt;p&gt;&lt;br&gt;&lt;/p&gt;" style="text;html=1;strokeColor=none;fillColor=none;spacing=5;spacingTop=-20;whiteSpace=wrap;overflow=hidden;rounded=0;" parent="WIyWlLk6GJQsqaUBKTNV-1" vertex="1">
          <mxGeometry x="470" y="100" width="210" height="310" as="geometry" />
        </mxCell>
        <mxCell id="UMjWkie3BbWeerTwhCgO-54" value="" style="edgeStyle=orthogonalEdgeStyle;rounded=0;orthogonalLoop=1;jettySize=auto;html=1;entryX=0.5;entryY=0;entryDx=0;entryDy=0;" parent="WIyWlLk6GJQsqaUBKTNV-1" source="UMjWkie3BbWeerTwhCgO-51" target="2q9IEAr4ZzkcC6MikMml-7" edge="1">
          <mxGeometry relative="1" as="geometry">
            <mxPoint x="550" y="1040" as="targetPoint" />
            <Array as="points">
              <mxPoint x="343" y="1460" />
              <mxPoint x="180" y="1460" />
            </Array>
          </mxGeometry>
        </mxCell>
        <mxCell id="UMjWkie3BbWeerTwhCgO-55" value="true" style="edgeLabel;html=1;align=center;verticalAlign=middle;resizable=0;points=[];" parent="UMjWkie3BbWeerTwhCgO-54" vertex="1" connectable="0">
          <mxGeometry x="-0.3023" relative="1" as="geometry">
            <mxPoint x="46" y="-29" as="offset" />
          </mxGeometry>
        </mxCell>
        <mxCell id="UMjWkie3BbWeerTwhCgO-56" value="Stop" style="ellipse;whiteSpace=wrap;html=1;fillColor=#f8cecc;strokeColor=#b85450;" parent="WIyWlLk6GJQsqaUBKTNV-1" vertex="1">
          <mxGeometry x="280" y="1780.0000000000002" width="120" height="80" as="geometry" />
        </mxCell>
        <mxCell id="UMjWkie3BbWeerTwhCgO-83" style="edgeStyle=orthogonalEdgeStyle;rounded=0;orthogonalLoop=1;jettySize=auto;html=1;entryX=0.5;entryY=0;entryDx=0;entryDy=0;" parent="WIyWlLk6GJQsqaUBKTNV-1" source="UMjWkie3BbWeerTwhCgO-81" target="UMjWkie3BbWeerTwhCgO-56" edge="1">
          <mxGeometry relative="1" as="geometry" />
        </mxCell>
        <mxCell id="UMjWkie3BbWeerTwhCgO-81" value="&lt;div&gt;stop function&lt;/div&gt;&lt;div&gt;(lcd, segment, env_sensor, matrix)&lt;br&gt;&lt;/div&gt;" style="shape=process;whiteSpace=wrap;html=1;backgroundOutline=1;" parent="WIyWlLk6GJQsqaUBKTNV-1" vertex="1">
          <mxGeometry x="280" y="1640" width="120" height="80" as="geometry" />
        </mxCell>
        <mxCell id="UMjWkie3BbWeerTwhCgO-85" value="&lt;h1&gt;main function&lt;/h1&gt;" style="text;html=1;strokeColor=none;fillColor=none;spacing=5;spacingTop=-20;whiteSpace=wrap;overflow=hidden;rounded=0;" parent="WIyWlLk6GJQsqaUBKTNV-1" vertex="1">
          <mxGeometry x="1330" y="80" width="190" height="120" as="geometry" />
        </mxCell>
        <mxCell id="UMjWkie3BbWeerTwhCgO-88" style="edgeStyle=orthogonalEdgeStyle;rounded=0;orthogonalLoop=1;jettySize=auto;html=1;entryX=0.5;entryY=0;entryDx=0;entryDy=0;" parent="WIyWlLk6GJQsqaUBKTNV-1" source="UMjWkie3BbWeerTwhCgO-86" target="UMjWkie3BbWeerTwhCgO-87" edge="1">
          <mxGeometry relative="1" as="geometry" />
        </mxCell>
        <mxCell id="UMjWkie3BbWeerTwhCgO-86" value="&lt;div&gt;function&lt;/div&gt;&lt;div&gt;main(env_sensor, light_sensor, lcd, matrix, segment, args.HUM, args.TEMP)&lt;br&gt;&lt;/div&gt;" style="ellipse;whiteSpace=wrap;html=1;fillColor=#d5e8d4;strokeColor=#82b366;" parent="WIyWlLk6GJQsqaUBKTNV-1" vertex="1">
          <mxGeometry x="1121" y="100" width="179" height="80" as="geometry" />
        </mxCell>
        <mxCell id="UMjWkie3BbWeerTwhCgO-93" style="edgeStyle=orthogonalEdgeStyle;rounded=0;orthogonalLoop=1;jettySize=auto;html=1;entryX=0.5;entryY=0;entryDx=0;entryDy=0;" parent="WIyWlLk6GJQsqaUBKTNV-1" source="UMjWkie3BbWeerTwhCgO-87" target="UMjWkie3BbWeerTwhCgO-96" edge="1">
          <mxGeometry relative="1" as="geometry">
            <mxPoint x="1210" y="390" as="targetPoint" />
          </mxGeometry>
        </mxCell>
        <mxCell id="UMjWkie3BbWeerTwhCgO-87" value="&lt;div&gt;Initialize default values:&lt;br&gt;&lt;/div&gt;&lt;div&gt;&lt;br&gt;&lt;/div&gt;&lt;div&gt;&amp;nbsp;&amp;nbsp;&amp;nbsp; hum_str := &quot;&quot;&lt;br&gt;&amp;nbsp;&amp;nbsp;&amp;nbsp; temp_str := &quot;&quot;&lt;br&gt;&amp;nbsp;&amp;nbsp;&amp;nbsp; line_break = &quot;&quot;&lt;br&gt;&lt;div&gt;&amp;nbsp;&amp;nbsp;&amp;nbsp; light := 0&lt;br&gt;&lt;/div&gt;&lt;/div&gt;" style="rounded=1;whiteSpace=wrap;html=1;align=left;" parent="WIyWlLk6GJQsqaUBKTNV-1" vertex="1">
          <mxGeometry x="1150.5" y="240" width="120" height="120" as="geometry" />
        </mxCell>
        <mxCell id="UMjWkie3BbWeerTwhCgO-99" style="edgeStyle=orthogonalEdgeStyle;rounded=0;orthogonalLoop=1;jettySize=auto;html=1;entryX=0;entryY=0.5;entryDx=0;entryDy=0;entryPerimeter=0;" parent="WIyWlLk6GJQsqaUBKTNV-1" source="UMjWkie3BbWeerTwhCgO-96" target="UMjWkie3BbWeerTwhCgO-126" edge="1">
          <mxGeometry relative="1" as="geometry">
            <mxPoint x="1400" y="630" as="targetPoint" />
          </mxGeometry>
        </mxCell>
        <mxCell id="UMjWkie3BbWeerTwhCgO-111" value="true" style="edgeLabel;html=1;align=center;verticalAlign=middle;resizable=0;points=[];" parent="UMjWkie3BbWeerTwhCgO-99" vertex="1" connectable="0">
          <mxGeometry x="-0.1097" y="3" relative="1" as="geometry">
            <mxPoint as="offset" />
          </mxGeometry>
        </mxCell>
        <mxCell id="2q9IEAr4ZzkcC6MikMml-16" style="edgeStyle=orthogonalEdgeStyle;rounded=0;orthogonalLoop=1;jettySize=auto;html=1;entryX=0.5;entryY=0;entryDx=0;entryDy=0;" parent="WIyWlLk6GJQsqaUBKTNV-1" source="UMjWkie3BbWeerTwhCgO-96" target="2q9IEAr4ZzkcC6MikMml-15" edge="1">
          <mxGeometry relative="1" as="geometry" />
        </mxCell>
        <mxCell id="2q9IEAr4ZzkcC6MikMml-17" value="false" style="edgeLabel;html=1;align=center;verticalAlign=middle;resizable=0;points=[];" parent="2q9IEAr4ZzkcC6MikMml-16" vertex="1" connectable="0">
          <mxGeometry x="-0.0196" y="-1" relative="1" as="geometry">
            <mxPoint x="1" y="-9" as="offset" />
          </mxGeometry>
        </mxCell>
        <mxCell id="UMjWkie3BbWeerTwhCgO-96" value="env_sensor?" style="rhombus;whiteSpace=wrap;html=1;" parent="WIyWlLk6GJQsqaUBKTNV-1" vertex="1">
          <mxGeometry x="1100" y="400" width="221" height="80" as="geometry" />
        </mxCell>
        <mxCell id="UMjWkie3BbWeerTwhCgO-103" style="edgeStyle=orthogonalEdgeStyle;rounded=0;orthogonalLoop=1;jettySize=auto;html=1;entryX=0.5;entryY=0;entryDx=0;entryDy=0;exitX=0.5;exitY=1;exitDx=0;exitDy=0;" parent="WIyWlLk6GJQsqaUBKTNV-1" source="UMjWkie3BbWeerTwhCgO-126" target="2q9IEAr4ZzkcC6MikMml-15" edge="1">
          <mxGeometry relative="1" as="geometry">
            <mxPoint x="1460" y="760" as="targetPoint" />
            <mxPoint x="1460" y="660" as="sourcePoint" />
            <Array as="points">
              <mxPoint x="1490" y="500" />
              <mxPoint x="1211" y="500" />
            </Array>
          </mxGeometry>
        </mxCell>
        <mxCell id="UMjWkie3BbWeerTwhCgO-105" style="edgeStyle=orthogonalEdgeStyle;rounded=0;orthogonalLoop=1;jettySize=auto;html=1;entryX=0;entryY=0.5;entryDx=0;entryDy=0;" parent="WIyWlLk6GJQsqaUBKTNV-1" source="UMjWkie3BbWeerTwhCgO-100" target="UMjWkie3BbWeerTwhCgO-104" edge="1">
          <mxGeometry relative="1" as="geometry" />
        </mxCell>
        <mxCell id="UMjWkie3BbWeerTwhCgO-113" value="true" style="edgeLabel;html=1;align=center;verticalAlign=middle;resizable=0;points=[];" parent="UMjWkie3BbWeerTwhCgO-105" vertex="1" connectable="0">
          <mxGeometry x="-0.181" y="-4" relative="1" as="geometry">
            <mxPoint y="-7" as="offset" />
          </mxGeometry>
        </mxCell>
        <mxCell id="UMjWkie3BbWeerTwhCgO-109" style="edgeStyle=orthogonalEdgeStyle;rounded=0;orthogonalLoop=1;jettySize=auto;html=1;entryX=0.5;entryY=0;entryDx=0;entryDy=0;" parent="WIyWlLk6GJQsqaUBKTNV-1" source="UMjWkie3BbWeerTwhCgO-100" target="UMjWkie3BbWeerTwhCgO-107" edge="1">
          <mxGeometry relative="1" as="geometry" />
        </mxCell>
        <mxCell id="UMjWkie3BbWeerTwhCgO-114" value="false" style="edgeLabel;html=1;align=center;verticalAlign=middle;resizable=0;points=[];" parent="UMjWkie3BbWeerTwhCgO-109" vertex="1" connectable="0">
          <mxGeometry x="-0.0133" relative="1" as="geometry">
            <mxPoint y="-10" as="offset" />
          </mxGeometry>
        </mxCell>
        <mxCell id="UMjWkie3BbWeerTwhCgO-100" value="hum?" style="rhombus;whiteSpace=wrap;html=1;" parent="WIyWlLk6GJQsqaUBKTNV-1" vertex="1">
          <mxGeometry x="1101" y="640" width="220" height="80" as="geometry" />
        </mxCell>
        <mxCell id="UMjWkie3BbWeerTwhCgO-116" style="edgeStyle=orthogonalEdgeStyle;rounded=0;orthogonalLoop=1;jettySize=auto;html=1;entryX=0.5;entryY=0;entryDx=0;entryDy=0;exitX=0.5;exitY=1;exitDx=0;exitDy=0;" parent="WIyWlLk6GJQsqaUBKTNV-1" source="UMjWkie3BbWeerTwhCgO-104" target="UMjWkie3BbWeerTwhCgO-107" edge="1">
          <mxGeometry relative="1" as="geometry">
            <mxPoint x="1290" y="771" as="targetPoint" />
            <Array as="points">
              <mxPoint x="1490" y="740" />
              <mxPoint x="1211" y="740" />
            </Array>
            <mxPoint x="1569" y="726" as="sourcePoint" />
          </mxGeometry>
        </mxCell>
        <mxCell id="UMjWkie3BbWeerTwhCgO-104" value="hum_str := &quot;Hum :&quot; + env_sensor.humidity() + &quot;%&quot;" style="rounded=1;whiteSpace=wrap;html=1;" parent="WIyWlLk6GJQsqaUBKTNV-1" vertex="1">
          <mxGeometry x="1410" y="640" width="160" height="80" as="geometry" />
        </mxCell>
        <mxCell id="UMjWkie3BbWeerTwhCgO-106" style="edgeStyle=orthogonalEdgeStyle;rounded=0;orthogonalLoop=1;jettySize=auto;html=1;entryX=0;entryY=0.5;entryDx=0;entryDy=0;" parent="WIyWlLk6GJQsqaUBKTNV-1" source="UMjWkie3BbWeerTwhCgO-107" target="UMjWkie3BbWeerTwhCgO-108" edge="1">
          <mxGeometry relative="1" as="geometry" />
        </mxCell>
        <mxCell id="2q9IEAr4ZzkcC6MikMml-24" value="true" style="edgeLabel;html=1;align=center;verticalAlign=middle;resizable=0;points=[];" parent="UMjWkie3BbWeerTwhCgO-106" vertex="1" connectable="0">
          <mxGeometry x="-0.1348" y="-1" relative="1" as="geometry">
            <mxPoint y="-4" as="offset" />
          </mxGeometry>
        </mxCell>
        <mxCell id="UMjWkie3BbWeerTwhCgO-120" style="edgeStyle=orthogonalEdgeStyle;rounded=0;orthogonalLoop=1;jettySize=auto;html=1;entryX=0.5;entryY=0;entryDx=0;entryDy=0;" parent="WIyWlLk6GJQsqaUBKTNV-1" source="UMjWkie3BbWeerTwhCgO-107" target="UMjWkie3BbWeerTwhCgO-118" edge="1">
          <mxGeometry relative="1" as="geometry" />
        </mxCell>
        <mxCell id="UMjWkie3BbWeerTwhCgO-121" value="false" style="edgeLabel;html=1;align=center;verticalAlign=middle;resizable=0;points=[];" parent="UMjWkie3BbWeerTwhCgO-120" vertex="1" connectable="0">
          <mxGeometry x="-0.0133" relative="1" as="geometry">
            <mxPoint y="-10" as="offset" />
          </mxGeometry>
        </mxCell>
        <mxCell id="UMjWkie3BbWeerTwhCgO-107" value="temp?" style="rhombus;whiteSpace=wrap;html=1;" parent="WIyWlLk6GJQsqaUBKTNV-1" vertex="1">
          <mxGeometry x="1101" y="760" width="220" height="80" as="geometry" />
        </mxCell>
        <mxCell id="2q9IEAr4ZzkcC6MikMml-25" style="edgeStyle=orthogonalEdgeStyle;rounded=0;orthogonalLoop=1;jettySize=auto;html=1;entryX=0.5;entryY=0;entryDx=0;entryDy=0;" parent="WIyWlLk6GJQsqaUBKTNV-1" source="UMjWkie3BbWeerTwhCgO-108" target="UMjWkie3BbWeerTwhCgO-118" edge="1">
          <mxGeometry relative="1" as="geometry">
            <Array as="points">
              <mxPoint x="1490" y="860" />
              <mxPoint x="1211" y="860" />
            </Array>
          </mxGeometry>
        </mxCell>
        <mxCell id="UMjWkie3BbWeerTwhCgO-108" value="temp_str := &quot;Temp:&quot; + env_sensor.humidity() + &quot;C&quot;" style="rounded=1;whiteSpace=wrap;html=1;" parent="WIyWlLk6GJQsqaUBKTNV-1" vertex="1">
          <mxGeometry x="1410" y="760" width="160" height="80" as="geometry" />
        </mxCell>
        <mxCell id="UMjWkie3BbWeerTwhCgO-117" style="edgeStyle=orthogonalEdgeStyle;rounded=0;orthogonalLoop=1;jettySize=auto;html=1;entryX=0;entryY=0.5;entryDx=0;entryDy=0;" parent="WIyWlLk6GJQsqaUBKTNV-1" source="UMjWkie3BbWeerTwhCgO-118" target="UMjWkie3BbWeerTwhCgO-119" edge="1">
          <mxGeometry relative="1" as="geometry" />
        </mxCell>
        <mxCell id="UMjWkie3BbWeerTwhCgO-130" value="true" style="edgeLabel;html=1;align=center;verticalAlign=middle;resizable=0;points=[];" parent="UMjWkie3BbWeerTwhCgO-117" vertex="1" connectable="0">
          <mxGeometry x="-0.2" relative="1" as="geometry">
            <mxPoint as="offset" />
          </mxGeometry>
        </mxCell>
        <mxCell id="2q9IEAr4ZzkcC6MikMml-29" style="edgeStyle=orthogonalEdgeStyle;rounded=0;orthogonalLoop=1;jettySize=auto;html=1;entryX=0.5;entryY=0;entryDx=0;entryDy=0;" parent="WIyWlLk6GJQsqaUBKTNV-1" source="UMjWkie3BbWeerTwhCgO-118" target="2q9IEAr4ZzkcC6MikMml-28" edge="1">
          <mxGeometry relative="1" as="geometry" />
        </mxCell>
        <mxCell id="2q9IEAr4ZzkcC6MikMml-72" value="false" style="edgeLabel;html=1;align=center;verticalAlign=middle;resizable=0;points=[];" parent="2q9IEAr4ZzkcC6MikMml-29" vertex="1" connectable="0">
          <mxGeometry x="-0.331" y="1" relative="1" as="geometry">
            <mxPoint y="-2" as="offset" />
          </mxGeometry>
        </mxCell>
        <mxCell id="UMjWkie3BbWeerTwhCgO-118" value="&lt;div&gt;hum and temp?&lt;br&gt;&lt;/div&gt;" style="rhombus;whiteSpace=wrap;html=1;" parent="WIyWlLk6GJQsqaUBKTNV-1" vertex="1">
          <mxGeometry x="1101" y="880" width="220" height="80" as="geometry" />
        </mxCell>
        <mxCell id="2q9IEAr4ZzkcC6MikMml-71" style="edgeStyle=orthogonalEdgeStyle;rounded=0;orthogonalLoop=1;jettySize=auto;html=1;entryX=0.5;entryY=0;entryDx=0;entryDy=0;" parent="WIyWlLk6GJQsqaUBKTNV-1" source="UMjWkie3BbWeerTwhCgO-119" target="2q9IEAr4ZzkcC6MikMml-28" edge="1">
          <mxGeometry relative="1" as="geometry">
            <Array as="points">
              <mxPoint x="1490" y="980" />
              <mxPoint x="1211" y="980" />
            </Array>
          </mxGeometry>
        </mxCell>
        <mxCell id="UMjWkie3BbWeerTwhCgO-119" value="line_break := &quot;\n &quot;" style="rounded=1;whiteSpace=wrap;html=1;" parent="WIyWlLk6GJQsqaUBKTNV-1" vertex="1">
          <mxGeometry x="1410" y="890" width="160" height="60" as="geometry" />
        </mxCell>
        <mxCell id="UMjWkie3BbWeerTwhCgO-126" value="&lt;div&gt;env_sensor.update&lt;/div&gt;&lt;div&gt;(5)&lt;/div&gt;" style="shape=process;whiteSpace=wrap;html=1;backgroundOutline=1;" parent="WIyWlLk6GJQsqaUBKTNV-1" vertex="1">
          <mxGeometry x="1410" y="400" width="160" height="80" as="geometry" />
        </mxCell>
        <mxCell id="UMjWkie3BbWeerTwhCgO-133" value="stop" style="ellipse;whiteSpace=wrap;html=1;fillColor=#f8cecc;strokeColor=#b85450;" parent="WIyWlLk6GJQsqaUBKTNV-1" vertex="1">
          <mxGeometry x="1120.5" y="2450" width="180" height="80" as="geometry" />
        </mxCell>
        <mxCell id="UMjWkie3BbWeerTwhCgO-139" style="edgeStyle=orthogonalEdgeStyle;rounded=0;orthogonalLoop=1;jettySize=auto;html=1;entryX=0.5;entryY=0;entryDx=0;entryDy=0;" parent="WIyWlLk6GJQsqaUBKTNV-1" source="UMjWkie3BbWeerTwhCgO-135" target="jWEjgLU3ACOmt5xkYZWo-22" edge="1">
          <mxGeometry relative="1" as="geometry">
            <mxPoint x="1110" y="1930" as="targetPoint" />
          </mxGeometry>
        </mxCell>
        <mxCell id="UMjWkie3BbWeerTwhCgO-140" value="false" style="edgeLabel;html=1;align=center;verticalAlign=middle;resizable=0;points=[];" parent="UMjWkie3BbWeerTwhCgO-139" vertex="1" connectable="0">
          <mxGeometry x="-0.1529" y="-2" relative="1" as="geometry">
            <mxPoint x="2" y="-264" as="offset" />
          </mxGeometry>
        </mxCell>
        <mxCell id="UMjWkie3BbWeerTwhCgO-142" style="edgeStyle=orthogonalEdgeStyle;rounded=0;orthogonalLoop=1;jettySize=auto;html=1;entryX=0;entryY=0.5;entryDx=0;entryDy=0;" parent="WIyWlLk6GJQsqaUBKTNV-1" source="UMjWkie3BbWeerTwhCgO-135" target="UMjWkie3BbWeerTwhCgO-141" edge="1">
          <mxGeometry relative="1" as="geometry" />
        </mxCell>
        <mxCell id="UMjWkie3BbWeerTwhCgO-143" value="true" style="edgeLabel;html=1;align=center;verticalAlign=middle;resizable=0;points=[];" parent="UMjWkie3BbWeerTwhCgO-142" vertex="1" connectable="0">
          <mxGeometry x="-0.0329" relative="1" as="geometry">
            <mxPoint y="-2" as="offset" />
          </mxGeometry>
        </mxCell>
        <mxCell id="UMjWkie3BbWeerTwhCgO-135" value="segment?" style="rhombus;whiteSpace=wrap;html=1;" parent="WIyWlLk6GJQsqaUBKTNV-1" vertex="1">
          <mxGeometry x="1101" y="1408" width="220" height="80" as="geometry" />
        </mxCell>
        <mxCell id="UMjWkie3BbWeerTwhCgO-145" style="edgeStyle=orthogonalEdgeStyle;rounded=0;orthogonalLoop=1;jettySize=auto;html=1;entryX=0.5;entryY=0;entryDx=0;entryDy=0;" parent="WIyWlLk6GJQsqaUBKTNV-1" source="UMjWkie3BbWeerTwhCgO-141" target="UMjWkie3BbWeerTwhCgO-153" edge="1">
          <mxGeometry relative="1" as="geometry">
            <mxPoint x="1561" y="1538" as="targetPoint" />
          </mxGeometry>
        </mxCell>
        <mxCell id="UMjWkie3BbWeerTwhCgO-146" value="true" style="edgeLabel;html=1;align=center;verticalAlign=middle;resizable=0;points=[];" parent="UMjWkie3BbWeerTwhCgO-145" vertex="1" connectable="0">
          <mxGeometry x="0.0589" y="-3" relative="1" as="geometry">
            <mxPoint x="2" as="offset" />
          </mxGeometry>
        </mxCell>
        <mxCell id="UMjWkie3BbWeerTwhCgO-148" style="edgeStyle=orthogonalEdgeStyle;rounded=0;orthogonalLoop=1;jettySize=auto;html=1;entryX=0;entryY=0.5;entryDx=0;entryDy=0;" parent="WIyWlLk6GJQsqaUBKTNV-1" source="UMjWkie3BbWeerTwhCgO-141" target="UMjWkie3BbWeerTwhCgO-144" edge="1">
          <mxGeometry relative="1" as="geometry">
            <mxPoint x="1771" y="1448" as="targetPoint" />
          </mxGeometry>
        </mxCell>
        <mxCell id="UMjWkie3BbWeerTwhCgO-149" value="false" style="edgeLabel;html=1;align=center;verticalAlign=middle;resizable=0;points=[];" parent="UMjWkie3BbWeerTwhCgO-148" vertex="1" connectable="0">
          <mxGeometry x="0.0408" y="-3" relative="1" as="geometry">
            <mxPoint y="-5" as="offset" />
          </mxGeometry>
        </mxCell>
        <mxCell id="UMjWkie3BbWeerTwhCgO-150" value="&lt;div&gt;&lt;br&gt;&lt;/div&gt;&lt;div&gt;&lt;br&gt;&lt;/div&gt;" style="edgeLabel;html=1;align=center;verticalAlign=middle;resizable=0;points=[];" parent="UMjWkie3BbWeerTwhCgO-148" vertex="1" connectable="0">
          <mxGeometry x="0.0516" y="-7" relative="1" as="geometry">
            <mxPoint as="offset" />
          </mxGeometry>
        </mxCell>
        <mxCell id="UMjWkie3BbWeerTwhCgO-141" value="hum and segment.shown_type != &quot;hum&quot; ?" style="rhombus;whiteSpace=wrap;html=1;" parent="WIyWlLk6GJQsqaUBKTNV-1" vertex="1">
          <mxGeometry x="1401" y="1398" width="320" height="100" as="geometry" />
        </mxCell>
        <mxCell id="UMjWkie3BbWeerTwhCgO-161" style="edgeStyle=orthogonalEdgeStyle;rounded=0;orthogonalLoop=1;jettySize=auto;html=1;" parent="WIyWlLk6GJQsqaUBKTNV-1" source="UMjWkie3BbWeerTwhCgO-144" target="UMjWkie3BbWeerTwhCgO-159" edge="1">
          <mxGeometry relative="1" as="geometry" />
        </mxCell>
        <mxCell id="UMjWkie3BbWeerTwhCgO-162" value="ja" style="edgeLabel;html=1;align=center;verticalAlign=middle;resizable=0;points=[];" parent="UMjWkie3BbWeerTwhCgO-161" vertex="1" connectable="0">
          <mxGeometry x="-0.0376" y="-1" relative="1" as="geometry">
            <mxPoint as="offset" />
          </mxGeometry>
        </mxCell>
        <mxCell id="2q9IEAr4ZzkcC6MikMml-73" value="true" style="edgeLabel;html=1;align=center;verticalAlign=middle;resizable=0;points=[];" parent="UMjWkie3BbWeerTwhCgO-161" vertex="1" connectable="0">
          <mxGeometry x="0.0213" relative="1" as="geometry">
            <mxPoint as="offset" />
          </mxGeometry>
        </mxCell>
        <mxCell id="UMjWkie3BbWeerTwhCgO-164" style="edgeStyle=orthogonalEdgeStyle;rounded=0;orthogonalLoop=1;jettySize=auto;html=1;entryX=0.5;entryY=0;entryDx=0;entryDy=0;" parent="WIyWlLk6GJQsqaUBKTNV-1" source="UMjWkie3BbWeerTwhCgO-144" target="jWEjgLU3ACOmt5xkYZWo-22" edge="1">
          <mxGeometry relative="1" as="geometry">
            <mxPoint x="1400" y="1920" as="targetPoint" />
            <Array as="points">
              <mxPoint x="2161" y="1448" />
              <mxPoint x="2161" y="1818" />
              <mxPoint x="1211" y="1818" />
            </Array>
          </mxGeometry>
        </mxCell>
        <mxCell id="UMjWkie3BbWeerTwhCgO-165" value="false" style="edgeLabel;html=1;align=center;verticalAlign=middle;resizable=0;points=[];" parent="UMjWkie3BbWeerTwhCgO-164" vertex="1" connectable="0">
          <mxGeometry x="-0.9589" y="-5" relative="1" as="geometry">
            <mxPoint y="-7" as="offset" />
          </mxGeometry>
        </mxCell>
        <mxCell id="UMjWkie3BbWeerTwhCgO-144" value="temp and segment.shown_type != &quot;temp&quot;" style="rhombus;whiteSpace=wrap;html=1;" parent="WIyWlLk6GJQsqaUBKTNV-1" vertex="1">
          <mxGeometry x="1781" y="1398" width="320" height="100" as="geometry" />
        </mxCell>
        <mxCell id="UMjWkie3BbWeerTwhCgO-155" style="edgeStyle=orthogonalEdgeStyle;rounded=0;orthogonalLoop=1;jettySize=auto;html=1;entryX=0.5;entryY=0;entryDx=0;entryDy=0;" parent="WIyWlLk6GJQsqaUBKTNV-1" source="UMjWkie3BbWeerTwhCgO-153" target="UMjWkie3BbWeerTwhCgO-154" edge="1">
          <mxGeometry relative="1" as="geometry" />
        </mxCell>
        <mxCell id="UMjWkie3BbWeerTwhCgO-153" value="&lt;div&gt;segment.show&lt;/div&gt;&lt;div&gt;(env_sensor.humidity + &quot;F&quot;)&lt;br&gt;&lt;/div&gt;" style="shape=process;whiteSpace=wrap;html=1;backgroundOutline=1;" parent="WIyWlLk6GJQsqaUBKTNV-1" vertex="1">
          <mxGeometry x="1471" y="1548" width="180" height="60" as="geometry" />
        </mxCell>
        <mxCell id="UMjWkie3BbWeerTwhCgO-156" style="edgeStyle=orthogonalEdgeStyle;rounded=0;orthogonalLoop=1;jettySize=auto;html=1;entryX=0.5;entryY=0;entryDx=0;entryDy=0;" parent="WIyWlLk6GJQsqaUBKTNV-1" source="UMjWkie3BbWeerTwhCgO-154" target="jWEjgLU3ACOmt5xkYZWo-22" edge="1">
          <mxGeometry relative="1" as="geometry">
            <Array as="points">
              <mxPoint x="1561" y="1818" />
              <mxPoint x="1211" y="1818" />
            </Array>
            <mxPoint x="1370" y="1890" as="targetPoint" />
          </mxGeometry>
        </mxCell>
        <mxCell id="UMjWkie3BbWeerTwhCgO-154" value="&lt;div&gt;segment.shown_type := &quot;hum&quot;&lt;br&gt;&lt;/div&gt;" style="rounded=1;whiteSpace=wrap;html=1;" parent="WIyWlLk6GJQsqaUBKTNV-1" vertex="1">
          <mxGeometry x="1476" y="1648" width="170" height="60" as="geometry" />
        </mxCell>
        <mxCell id="UMjWkie3BbWeerTwhCgO-158" style="edgeStyle=orthogonalEdgeStyle;rounded=0;orthogonalLoop=1;jettySize=auto;html=1;entryX=0.5;entryY=0;entryDx=0;entryDy=0;" parent="WIyWlLk6GJQsqaUBKTNV-1" source="UMjWkie3BbWeerTwhCgO-159" target="UMjWkie3BbWeerTwhCgO-160" edge="1">
          <mxGeometry relative="1" as="geometry" />
        </mxCell>
        <mxCell id="UMjWkie3BbWeerTwhCgO-159" value="&lt;div&gt;segment.show&lt;/div&gt;&lt;div&gt;(env_sensor.temperature + &quot;C&quot;)&lt;br&gt;&lt;/div&gt;" style="shape=process;whiteSpace=wrap;html=1;backgroundOutline=1;" parent="WIyWlLk6GJQsqaUBKTNV-1" vertex="1">
          <mxGeometry x="1851" y="1548" width="180" height="60" as="geometry" />
        </mxCell>
        <mxCell id="UMjWkie3BbWeerTwhCgO-163" style="edgeStyle=orthogonalEdgeStyle;rounded=0;orthogonalLoop=1;jettySize=auto;html=1;entryX=0.5;entryY=0;entryDx=0;entryDy=0;" parent="WIyWlLk6GJQsqaUBKTNV-1" source="UMjWkie3BbWeerTwhCgO-160" target="jWEjgLU3ACOmt5xkYZWo-22" edge="1">
          <mxGeometry relative="1" as="geometry">
            <Array as="points">
              <mxPoint x="1941" y="1818" />
              <mxPoint x="1211" y="1818" />
            </Array>
            <mxPoint x="1350" y="1950" as="targetPoint" />
          </mxGeometry>
        </mxCell>
        <mxCell id="UMjWkie3BbWeerTwhCgO-160" value="&lt;div&gt;segment.shown_type := &quot;temp&quot;&lt;br&gt;&lt;/div&gt;" style="rounded=1;whiteSpace=wrap;html=1;" parent="WIyWlLk6GJQsqaUBKTNV-1" vertex="1">
          <mxGeometry x="1856" y="1648" width="170" height="60" as="geometry" />
        </mxCell>
        <mxCell id="UMjWkie3BbWeerTwhCgO-169" style="edgeStyle=orthogonalEdgeStyle;rounded=0;orthogonalLoop=1;jettySize=auto;html=1;entryX=0.5;entryY=0;entryDx=0;entryDy=0;" parent="WIyWlLk6GJQsqaUBKTNV-1" source="UMjWkie3BbWeerTwhCgO-167" target="UMjWkie3BbWeerTwhCgO-173" edge="1">
          <mxGeometry relative="1" as="geometry">
            <mxPoint x="2410.5" y="220" as="targetPoint" />
          </mxGeometry>
        </mxCell>
        <mxCell id="UMjWkie3BbWeerTwhCgO-167" value="&lt;div&gt;function&lt;/div&gt;&lt;div&gt;stop(segment, env_sensor)&lt;br&gt;&lt;/div&gt;" style="ellipse;whiteSpace=wrap;html=1;fillColor=#d5e8d4;strokeColor=#82b366;" parent="WIyWlLk6GJQsqaUBKTNV-1" vertex="1">
          <mxGeometry x="2321" y="100" width="179" height="80" as="geometry" />
        </mxCell>
        <mxCell id="UMjWkie3BbWeerTwhCgO-178" style="edgeStyle=orthogonalEdgeStyle;rounded=0;orthogonalLoop=1;jettySize=auto;html=1;entryX=0;entryY=0.5;entryDx=0;entryDy=0;" parent="WIyWlLk6GJQsqaUBKTNV-1" source="UMjWkie3BbWeerTwhCgO-173" edge="1">
          <mxGeometry relative="1" as="geometry">
            <mxPoint x="2511" y="400" as="targetPoint" />
          </mxGeometry>
        </mxCell>
        <mxCell id="UMjWkie3BbWeerTwhCgO-179" value="true" style="edgeLabel;html=1;align=center;verticalAlign=middle;resizable=0;points=[];" parent="UMjWkie3BbWeerTwhCgO-178" vertex="1" connectable="0">
          <mxGeometry x="-0.0217" y="-3" relative="1" as="geometry">
            <mxPoint y="-5" as="offset" />
          </mxGeometry>
        </mxCell>
        <mxCell id="UMjWkie3BbWeerTwhCgO-181" style="edgeStyle=orthogonalEdgeStyle;rounded=0;orthogonalLoop=1;jettySize=auto;html=1;entryX=0.5;entryY=0;entryDx=0;entryDy=0;" parent="WIyWlLk6GJQsqaUBKTNV-1" source="UMjWkie3BbWeerTwhCgO-173" target="UMjWkie3BbWeerTwhCgO-180" edge="1">
          <mxGeometry relative="1" as="geometry" />
        </mxCell>
        <mxCell id="UMjWkie3BbWeerTwhCgO-182" value="false" style="edgeLabel;html=1;align=center;verticalAlign=middle;resizable=0;points=[];" parent="UMjWkie3BbWeerTwhCgO-181" vertex="1" connectable="0">
          <mxGeometry x="-0.0226" y="-2" relative="1" as="geometry">
            <mxPoint x="2" as="offset" />
          </mxGeometry>
        </mxCell>
        <mxCell id="UMjWkie3BbWeerTwhCgO-173" value="segment ?" style="rhombus;whiteSpace=wrap;html=1;" parent="WIyWlLk6GJQsqaUBKTNV-1" vertex="1">
          <mxGeometry x="2371" y="360" width="80" height="80" as="geometry" />
        </mxCell>
        <mxCell id="UMjWkie3BbWeerTwhCgO-183" style="edgeStyle=orthogonalEdgeStyle;rounded=0;orthogonalLoop=1;jettySize=auto;html=1;" parent="WIyWlLk6GJQsqaUBKTNV-1" target="UMjWkie3BbWeerTwhCgO-180" edge="1">
          <mxGeometry relative="1" as="geometry">
            <mxPoint x="2571" y="490" as="targetPoint" />
            <mxPoint x="2571.142857142858" y="430" as="sourcePoint" />
            <Array as="points">
              <mxPoint x="2571" y="480" />
              <mxPoint x="2411" y="480" />
            </Array>
          </mxGeometry>
        </mxCell>
        <mxCell id="UMjWkie3BbWeerTwhCgO-177" value="&lt;div&gt;segment.stop&lt;/div&gt;&lt;div&gt;()&lt;/div&gt;" style="shape=process;whiteSpace=wrap;html=1;backgroundOutline=1;" parent="WIyWlLk6GJQsqaUBKTNV-1" vertex="1">
          <mxGeometry x="2510" y="370" width="120" height="60" as="geometry" />
        </mxCell>
        <mxCell id="UMjWkie3BbWeerTwhCgO-185" style="edgeStyle=orthogonalEdgeStyle;rounded=0;orthogonalLoop=1;jettySize=auto;html=1;entryX=0;entryY=0.5;entryDx=0;entryDy=0;" parent="WIyWlLk6GJQsqaUBKTNV-1" source="UMjWkie3BbWeerTwhCgO-180" edge="1">
          <mxGeometry relative="1" as="geometry">
            <mxPoint x="2511" y="530" as="targetPoint" />
          </mxGeometry>
        </mxCell>
        <mxCell id="UMjWkie3BbWeerTwhCgO-186" value="true" style="edgeLabel;html=1;align=center;verticalAlign=middle;resizable=0;points=[];" parent="UMjWkie3BbWeerTwhCgO-185" vertex="1" connectable="0">
          <mxGeometry x="-0.0507" y="-1" relative="1" as="geometry">
            <mxPoint y="-2" as="offset" />
          </mxGeometry>
        </mxCell>
        <mxCell id="UMjWkie3BbWeerTwhCgO-189" style="edgeStyle=orthogonalEdgeStyle;rounded=0;orthogonalLoop=1;jettySize=auto;html=1;entryX=0.5;entryY=0;entryDx=0;entryDy=0;" parent="WIyWlLk6GJQsqaUBKTNV-1" source="UMjWkie3BbWeerTwhCgO-180" target="UMjWkie3BbWeerTwhCgO-188" edge="1">
          <mxGeometry relative="1" as="geometry" />
        </mxCell>
        <mxCell id="2q9IEAr4ZzkcC6MikMml-74" value="false" style="edgeLabel;html=1;align=center;verticalAlign=middle;resizable=0;points=[];" parent="UMjWkie3BbWeerTwhCgO-189" vertex="1" connectable="0">
          <mxGeometry x="-0.6031" y="1" relative="1" as="geometry">
            <mxPoint as="offset" />
          </mxGeometry>
        </mxCell>
        <mxCell id="UMjWkie3BbWeerTwhCgO-180" value="env_sensor ?" style="rhombus;whiteSpace=wrap;html=1;" parent="WIyWlLk6GJQsqaUBKTNV-1" vertex="1">
          <mxGeometry x="2371" y="490" width="80" height="80" as="geometry" />
        </mxCell>
        <mxCell id="UMjWkie3BbWeerTwhCgO-190" style="edgeStyle=orthogonalEdgeStyle;rounded=0;orthogonalLoop=1;jettySize=auto;html=1;entryX=0.5;entryY=0;entryDx=0;entryDy=0;" parent="WIyWlLk6GJQsqaUBKTNV-1" target="UMjWkie3BbWeerTwhCgO-188" edge="1">
          <mxGeometry relative="1" as="geometry">
            <mxPoint x="2411" y="590" as="targetPoint" />
            <mxPoint x="2571.142857142858" y="560" as="sourcePoint" />
            <Array as="points">
              <mxPoint x="2571" y="590" />
              <mxPoint x="2411" y="590" />
            </Array>
          </mxGeometry>
        </mxCell>
        <mxCell id="UMjWkie3BbWeerTwhCgO-184" value="&lt;div&gt;env_sensor.stop&lt;/div&gt;&lt;div&gt;()&lt;br&gt;&lt;/div&gt;" style="shape=process;whiteSpace=wrap;html=1;backgroundOutline=1;" parent="WIyWlLk6GJQsqaUBKTNV-1" vertex="1">
          <mxGeometry x="2510" y="500" width="120" height="60" as="geometry" />
        </mxCell>
        <mxCell id="UMjWkie3BbWeerTwhCgO-187" value="stop" style="ellipse;whiteSpace=wrap;html=1;fillColor=#f8cecc;strokeColor=#b85450;" parent="WIyWlLk6GJQsqaUBKTNV-1" vertex="1">
          <mxGeometry x="2321" y="700" width="180" height="80" as="geometry" />
        </mxCell>
        <mxCell id="UMjWkie3BbWeerTwhCgO-191" style="edgeStyle=orthogonalEdgeStyle;rounded=0;orthogonalLoop=1;jettySize=auto;html=1;entryX=0.5;entryY=0;entryDx=0;entryDy=0;" parent="WIyWlLk6GJQsqaUBKTNV-1" source="UMjWkie3BbWeerTwhCgO-188" target="UMjWkie3BbWeerTwhCgO-187" edge="1">
          <mxGeometry relative="1" as="geometry" />
        </mxCell>
        <mxCell id="UMjWkie3BbWeerTwhCgO-188" value="python Programm beenden" style="rounded=1;whiteSpace=wrap;html=1;" parent="WIyWlLk6GJQsqaUBKTNV-1" vertex="1">
          <mxGeometry x="2351" y="600" width="120" height="60" as="geometry" />
        </mxCell>
        <mxCell id="UMjWkie3BbWeerTwhCgO-194" value="&lt;h1&gt;stop function&lt;br&gt;&lt;/h1&gt;" style="text;html=1;strokeColor=none;fillColor=none;spacing=5;spacingTop=-20;whiteSpace=wrap;overflow=hidden;rounded=0;" parent="WIyWlLk6GJQsqaUBKTNV-1" vertex="1">
          <mxGeometry x="2550" y="80" width="190" height="120" as="geometry" />
        </mxCell>
        <mxCell id="UMjWkie3BbWeerTwhCgO-198" style="edgeStyle=orthogonalEdgeStyle;rounded=0;orthogonalLoop=1;jettySize=auto;html=1;entryX=0.5;entryY=0;entryDx=0;entryDy=0;" parent="WIyWlLk6GJQsqaUBKTNV-1" source="UMjWkie3BbWeerTwhCgO-195" target="UMjWkie3BbWeerTwhCgO-197" edge="1">
          <mxGeometry relative="1" as="geometry" />
        </mxCell>
        <mxCell id="UMjWkie3BbWeerTwhCgO-195" value="&lt;div&gt;function&lt;/div&gt;&lt;div&gt;DHT11.update(timeout)&lt;br&gt;&lt;/div&gt;" style="ellipse;whiteSpace=wrap;html=1;fillColor=#d5e8d4;strokeColor=#82b366;" parent="WIyWlLk6GJQsqaUBKTNV-1" vertex="1">
          <mxGeometry x="2990" y="90" width="179" height="80" as="geometry" />
        </mxCell>
        <mxCell id="UMjWkie3BbWeerTwhCgO-200" style="edgeStyle=orthogonalEdgeStyle;rounded=0;orthogonalLoop=1;jettySize=auto;html=1;entryX=0.5;entryY=0;entryDx=0;entryDy=0;" parent="WIyWlLk6GJQsqaUBKTNV-1" source="UMjWkie3BbWeerTwhCgO-197" target="UMjWkie3BbWeerTwhCgO-199" edge="1">
          <mxGeometry relative="1" as="geometry" />
        </mxCell>
        <mxCell id="UMjWkie3BbWeerTwhCgO-197" value="result := self.instance.read()" style="rounded=1;whiteSpace=wrap;html=1;" parent="WIyWlLk6GJQsqaUBKTNV-1" vertex="1">
          <mxGeometry x="3019.5" y="250" width="120" height="60" as="geometry" />
        </mxCell>
        <mxCell id="UMjWkie3BbWeerTwhCgO-203" style="edgeStyle=orthogonalEdgeStyle;rounded=0;orthogonalLoop=1;jettySize=auto;html=1;entryX=0.5;entryY=0;entryDx=0;entryDy=0;" parent="WIyWlLk6GJQsqaUBKTNV-1" source="UMjWkie3BbWeerTwhCgO-199" target="UMjWkie3BbWeerTwhCgO-204" edge="1">
          <mxGeometry relative="1" as="geometry">
            <mxPoint x="3079.5" y="465" as="targetPoint" />
          </mxGeometry>
        </mxCell>
        <mxCell id="UMjWkie3BbWeerTwhCgO-199" value="timeout := current time + timeout" style="rounded=1;whiteSpace=wrap;html=1;" parent="WIyWlLk6GJQsqaUBKTNV-1" vertex="1">
          <mxGeometry x="3020" y="360" width="120" height="60" as="geometry" />
        </mxCell>
        <mxCell id="UMjWkie3BbWeerTwhCgO-207" style="edgeStyle=orthogonalEdgeStyle;rounded=0;orthogonalLoop=1;jettySize=auto;html=1;entryX=0.5;entryY=0;entryDx=0;entryDy=0;" parent="WIyWlLk6GJQsqaUBKTNV-1" source="UMjWkie3BbWeerTwhCgO-204" target="UMjWkie3BbWeerTwhCgO-206" edge="1">
          <mxGeometry relative="1" as="geometry" />
        </mxCell>
        <mxCell id="UMjWkie3BbWeerTwhCgO-204" value="result := self.instance.read()" style="rounded=1;whiteSpace=wrap;html=1;" parent="WIyWlLk6GJQsqaUBKTNV-1" vertex="1">
          <mxGeometry x="3020" y="470" width="120" height="60" as="geometry" />
        </mxCell>
        <mxCell id="UMjWkie3BbWeerTwhCgO-208" style="edgeStyle=orthogonalEdgeStyle;rounded=0;orthogonalLoop=1;jettySize=auto;html=1;entryX=0.5;entryY=0;entryDx=0;entryDy=0;" parent="WIyWlLk6GJQsqaUBKTNV-1" source="UMjWkie3BbWeerTwhCgO-206" target="UMjWkie3BbWeerTwhCgO-204" edge="1">
          <mxGeometry relative="1" as="geometry">
            <mxPoint x="3080" y="310" as="targetPoint" />
            <Array as="points">
              <mxPoint x="2901" y="619" />
              <mxPoint x="2900" y="618" />
              <mxPoint x="2900" y="470" />
            </Array>
          </mxGeometry>
        </mxCell>
        <mxCell id="UMjWkie3BbWeerTwhCgO-209" value="false" style="edgeLabel;html=1;align=center;verticalAlign=middle;resizable=0;points=[];" parent="UMjWkie3BbWeerTwhCgO-208" vertex="1" connectable="0">
          <mxGeometry x="-0.8637" y="1" relative="1" as="geometry">
            <mxPoint x="3" y="-4" as="offset" />
          </mxGeometry>
        </mxCell>
        <mxCell id="UMjWkie3BbWeerTwhCgO-213" style="edgeStyle=orthogonalEdgeStyle;rounded=0;orthogonalLoop=1;jettySize=auto;html=1;entryX=0.5;entryY=0;entryDx=0;entryDy=0;" parent="WIyWlLk6GJQsqaUBKTNV-1" source="UMjWkie3BbWeerTwhCgO-206" target="UMjWkie3BbWeerTwhCgO-212" edge="1">
          <mxGeometry relative="1" as="geometry" />
        </mxCell>
        <mxCell id="2q9IEAr4ZzkcC6MikMml-76" value="true" style="edgeLabel;html=1;align=center;verticalAlign=middle;resizable=0;points=[];" parent="UMjWkie3BbWeerTwhCgO-213" vertex="1" connectable="0">
          <mxGeometry x="-0.341" relative="1" as="geometry">
            <mxPoint as="offset" />
          </mxGeometry>
        </mxCell>
        <mxCell id="UMjWkie3BbWeerTwhCgO-206" value="result has valid value" style="rhombus;whiteSpace=wrap;html=1;" parent="WIyWlLk6GJQsqaUBKTNV-1" vertex="1">
          <mxGeometry x="2950.5" y="570" width="258" height="97" as="geometry" />
        </mxCell>
        <mxCell id="UMjWkie3BbWeerTwhCgO-212" value="stop" style="ellipse;whiteSpace=wrap;html=1;fillColor=#f8cecc;strokeColor=#b85450;" parent="WIyWlLk6GJQsqaUBKTNV-1" vertex="1">
          <mxGeometry x="2990" y="710" width="180" height="80" as="geometry" />
        </mxCell>
        <mxCell id="UMjWkie3BbWeerTwhCgO-214" value="&lt;h1&gt;DHT11.update function&lt;/h1&gt;" style="text;html=1;strokeColor=none;fillColor=none;spacing=5;spacingTop=-20;whiteSpace=wrap;overflow=hidden;rounded=0;" parent="WIyWlLk6GJQsqaUBKTNV-1" vertex="1">
          <mxGeometry x="3230" y="60" width="190" height="120" as="geometry" />
        </mxCell>
        <mxCell id="UMjWkie3BbWeerTwhCgO-218" style="edgeStyle=orthogonalEdgeStyle;rounded=0;orthogonalLoop=1;jettySize=auto;html=1;entryX=0.5;entryY=0;entryDx=0;entryDy=0;" parent="WIyWlLk6GJQsqaUBKTNV-1" source="UMjWkie3BbWeerTwhCgO-215" target="UMjWkie3BbWeerTwhCgO-217" edge="1">
          <mxGeometry relative="1" as="geometry" />
        </mxCell>
        <mxCell id="UMjWkie3BbWeerTwhCgO-215" value="&lt;div&gt;function&lt;/div&gt;&lt;div&gt;Segment.show(chars)&lt;br&gt;&lt;/div&gt;" style="ellipse;whiteSpace=wrap;html=1;fillColor=#d5e8d4;strokeColor=#82b366;" parent="WIyWlLk6GJQsqaUBKTNV-1" vertex="1">
          <mxGeometry x="3470" y="100" width="179" height="80" as="geometry" />
        </mxCell>
        <mxCell id="UMjWkie3BbWeerTwhCgO-216" value="&lt;h1&gt;Segment.show function&lt;/h1&gt;" style="text;html=1;strokeColor=none;fillColor=none;spacing=5;spacingTop=-20;whiteSpace=wrap;overflow=hidden;rounded=0;" parent="WIyWlLk6GJQsqaUBKTNV-1" vertex="1">
          <mxGeometry x="3710" y="70" width="190" height="120" as="geometry" />
        </mxCell>
        <mxCell id="UMjWkie3BbWeerTwhCgO-220" style="edgeStyle=orthogonalEdgeStyle;rounded=0;orthogonalLoop=1;jettySize=auto;html=1;entryX=0.5;entryY=0;entryDx=0;entryDy=0;" parent="WIyWlLk6GJQsqaUBKTNV-1" source="UMjWkie3BbWeerTwhCgO-217" target="UMjWkie3BbWeerTwhCgO-221" edge="1">
          <mxGeometry relative="1" as="geometry">
            <mxPoint x="3560" y="300" as="targetPoint" />
          </mxGeometry>
        </mxCell>
        <mxCell id="UMjWkie3BbWeerTwhCgO-217" value="&lt;div&gt;written_chars := &quot;&quot;&lt;/div&gt;&lt;div&gt;dot_control := 0&lt;br&gt;&lt;/div&gt;" style="rounded=1;whiteSpace=wrap;html=1;" parent="WIyWlLk6GJQsqaUBKTNV-1" vertex="1">
          <mxGeometry x="3500" y="210" width="120" height="60" as="geometry" />
        </mxCell>
        <mxCell id="UMjWkie3BbWeerTwhCgO-246" style="edgeStyle=orthogonalEdgeStyle;rounded=0;orthogonalLoop=1;jettySize=auto;html=1;entryX=0.5;entryY=0;entryDx=0;entryDy=0;" parent="WIyWlLk6GJQsqaUBKTNV-1" source="UMjWkie3BbWeerTwhCgO-221" target="UMjWkie3BbWeerTwhCgO-247" edge="1">
          <mxGeometry relative="1" as="geometry">
            <mxPoint x="3570" y="1130" as="targetPoint" />
            <Array as="points">
              <mxPoint x="3570" y="1100" />
              <mxPoint x="3570" y="1100" />
            </Array>
          </mxGeometry>
        </mxCell>
        <mxCell id="UMjWkie3BbWeerTwhCgO-221" value="i, c for chars and length in chars" style="swimlane;whiteSpace=wrap;html=1;startSize=23;" parent="WIyWlLk6GJQsqaUBKTNV-1" vertex="1">
          <mxGeometry x="3430" y="320" width="632.75" height="750" as="geometry" />
        </mxCell>
        <mxCell id="UMjWkie3BbWeerTwhCgO-227" style="edgeStyle=orthogonalEdgeStyle;rounded=0;orthogonalLoop=1;jettySize=auto;html=1;entryX=0.5;entryY=0;entryDx=0;entryDy=0;" parent="UMjWkie3BbWeerTwhCgO-221" source="UMjWkie3BbWeerTwhCgO-222" target="UMjWkie3BbWeerTwhCgO-225" edge="1">
          <mxGeometry relative="1" as="geometry" />
        </mxCell>
        <mxCell id="UMjWkie3BbWeerTwhCgO-222" value="ii := i -dot_control" style="rounded=1;whiteSpace=wrap;html=1;" parent="UMjWkie3BbWeerTwhCgO-221" vertex="1">
          <mxGeometry x="72.25" y="40" width="120" height="60" as="geometry" />
        </mxCell>
        <mxCell id="UMjWkie3BbWeerTwhCgO-231" style="edgeStyle=orthogonalEdgeStyle;rounded=0;orthogonalLoop=1;jettySize=auto;html=1;entryX=0.5;entryY=0;entryDx=0;entryDy=0;" parent="UMjWkie3BbWeerTwhCgO-221" source="UMjWkie3BbWeerTwhCgO-225" target="UMjWkie3BbWeerTwhCgO-230" edge="1">
          <mxGeometry relative="1" as="geometry" />
        </mxCell>
        <mxCell id="2q9IEAr4ZzkcC6MikMml-78" value="false" style="edgeLabel;html=1;align=center;verticalAlign=middle;resizable=0;points=[];" parent="UMjWkie3BbWeerTwhCgO-231" vertex="1" connectable="0">
          <mxGeometry x="-0.3208" y="1" relative="1" as="geometry">
            <mxPoint as="offset" />
          </mxGeometry>
        </mxCell>
        <mxCell id="UMjWkie3BbWeerTwhCgO-225" value="&lt;div&gt;Fehler &quot;KeyboardInterrupt&quot;&lt;/div&gt;&lt;div&gt;tritt auf&lt;br&gt;&lt;/div&gt;" style="rhombus;whiteSpace=wrap;html=1;" parent="UMjWkie3BbWeerTwhCgO-221" vertex="1">
          <mxGeometry x="21.75" y="145" width="221" height="70" as="geometry" />
        </mxCell>
        <mxCell id="UMjWkie3BbWeerTwhCgO-229" style="edgeStyle=orthogonalEdgeStyle;rounded=0;orthogonalLoop=1;jettySize=auto;html=1;exitX=1;exitY=0.5;exitDx=0;exitDy=0;" parent="UMjWkie3BbWeerTwhCgO-221" source="2q9IEAr4ZzkcC6MikMml-77" target="UMjWkie3BbWeerTwhCgO-228" edge="1">
          <mxGeometry relative="1" as="geometry">
            <mxPoint x="432.75" y="180" as="sourcePoint" />
          </mxGeometry>
        </mxCell>
        <mxCell id="UMjWkie3BbWeerTwhCgO-223" style="edgeStyle=orthogonalEdgeStyle;rounded=0;orthogonalLoop=1;jettySize=auto;html=1;entryX=0;entryY=0.5;entryDx=0;entryDy=0;" parent="UMjWkie3BbWeerTwhCgO-221" source="UMjWkie3BbWeerTwhCgO-225" target="2q9IEAr4ZzkcC6MikMml-77" edge="1">
          <mxGeometry relative="1" as="geometry">
            <mxPoint x="312.75" y="180" as="targetPoint" />
          </mxGeometry>
        </mxCell>
        <mxCell id="UMjWkie3BbWeerTwhCgO-224" value="true" style="edgeLabel;html=1;align=center;verticalAlign=middle;resizable=0;points=[];" parent="UMjWkie3BbWeerTwhCgO-223" vertex="1" connectable="0">
          <mxGeometry x="-0.3023" relative="1" as="geometry">
            <mxPoint as="offset" />
          </mxGeometry>
        </mxCell>
        <mxCell id="UMjWkie3BbWeerTwhCgO-228" value="&lt;div&gt;return written_chars&lt;/div&gt;&lt;div&gt;und False&lt;br&gt;&lt;/div&gt;" style="rounded=1;whiteSpace=wrap;html=1;" parent="UMjWkie3BbWeerTwhCgO-221" vertex="1">
          <mxGeometry x="482.75" y="150" width="120" height="60" as="geometry" />
        </mxCell>
        <mxCell id="UMjWkie3BbWeerTwhCgO-233" style="edgeStyle=orthogonalEdgeStyle;rounded=0;orthogonalLoop=1;jettySize=auto;html=1;entryX=0;entryY=0.5;entryDx=0;entryDy=0;" parent="UMjWkie3BbWeerTwhCgO-221" source="UMjWkie3BbWeerTwhCgO-230" target="UMjWkie3BbWeerTwhCgO-235" edge="1">
          <mxGeometry relative="1" as="geometry">
            <mxPoint x="280" y="300" as="targetPoint" />
          </mxGeometry>
        </mxCell>
        <mxCell id="UMjWkie3BbWeerTwhCgO-234" value="nein" style="edgeLabel;html=1;align=center;verticalAlign=middle;resizable=0;points=[];" parent="UMjWkie3BbWeerTwhCgO-233" vertex="1" connectable="0">
          <mxGeometry x="0.0347" y="-2" relative="1" as="geometry">
            <mxPoint as="offset" />
          </mxGeometry>
        </mxCell>
        <mxCell id="2q9IEAr4ZzkcC6MikMml-79" value="true" style="edgeLabel;html=1;align=center;verticalAlign=middle;resizable=0;points=[];" parent="UMjWkie3BbWeerTwhCgO-233" vertex="1" connectable="0">
          <mxGeometry x="0.0244" y="-4" relative="1" as="geometry">
            <mxPoint y="-5" as="offset" />
          </mxGeometry>
        </mxCell>
        <mxCell id="UMjWkie3BbWeerTwhCgO-237" style="edgeStyle=orthogonalEdgeStyle;rounded=0;orthogonalLoop=1;jettySize=auto;html=1;entryX=0.5;entryY=0;entryDx=0;entryDy=0;" parent="UMjWkie3BbWeerTwhCgO-221" source="UMjWkie3BbWeerTwhCgO-230" target="UMjWkie3BbWeerTwhCgO-236" edge="1">
          <mxGeometry relative="1" as="geometry" />
        </mxCell>
        <mxCell id="2q9IEAr4ZzkcC6MikMml-80" value="false" style="edgeLabel;html=1;align=center;verticalAlign=middle;resizable=0;points=[];" parent="UMjWkie3BbWeerTwhCgO-237" vertex="1" connectable="0">
          <mxGeometry x="-0.3554" relative="1" as="geometry">
            <mxPoint as="offset" />
          </mxGeometry>
        </mxCell>
        <mxCell id="UMjWkie3BbWeerTwhCgO-230" value="c == &quot;.&quot; oder c == &quot;,&quot;" style="rhombus;whiteSpace=wrap;html=1;" parent="UMjWkie3BbWeerTwhCgO-221" vertex="1">
          <mxGeometry x="23.5" y="260" width="217.25" height="80" as="geometry" />
        </mxCell>
        <mxCell id="UMjWkie3BbWeerTwhCgO-242" style="edgeStyle=orthogonalEdgeStyle;rounded=0;orthogonalLoop=1;jettySize=auto;html=1;" parent="UMjWkie3BbWeerTwhCgO-221" source="UMjWkie3BbWeerTwhCgO-235" edge="1">
          <mxGeometry relative="1" as="geometry">
            <mxPoint x="130" y="550" as="targetPoint" />
            <Array as="points">
              <mxPoint x="430" y="300" />
              <mxPoint x="430" y="550" />
            </Array>
          </mxGeometry>
        </mxCell>
        <mxCell id="UMjWkie3BbWeerTwhCgO-235" value="self.segment[ii] = c" style="rounded=1;whiteSpace=wrap;html=1;" parent="UMjWkie3BbWeerTwhCgO-221" vertex="1">
          <mxGeometry x="292" y="270" width="120" height="60" as="geometry" />
        </mxCell>
        <mxCell id="UMjWkie3BbWeerTwhCgO-239" style="edgeStyle=orthogonalEdgeStyle;rounded=0;orthogonalLoop=1;jettySize=auto;html=1;entryX=0.5;entryY=0;entryDx=0;entryDy=0;" parent="UMjWkie3BbWeerTwhCgO-221" source="UMjWkie3BbWeerTwhCgO-236" target="UMjWkie3BbWeerTwhCgO-238" edge="1">
          <mxGeometry relative="1" as="geometry" />
        </mxCell>
        <mxCell id="UMjWkie3BbWeerTwhCgO-236" value="self.segment[ii - 1] = &quot;.&quot;" style="rounded=1;whiteSpace=wrap;html=1;" parent="UMjWkie3BbWeerTwhCgO-221" vertex="1">
          <mxGeometry x="58.13" y="370" width="148" height="60" as="geometry" />
        </mxCell>
        <mxCell id="UMjWkie3BbWeerTwhCgO-241" style="edgeStyle=orthogonalEdgeStyle;rounded=0;orthogonalLoop=1;jettySize=auto;html=1;entryX=0.5;entryY=0;entryDx=0;entryDy=0;" parent="UMjWkie3BbWeerTwhCgO-221" source="UMjWkie3BbWeerTwhCgO-238" target="UMjWkie3BbWeerTwhCgO-240" edge="1">
          <mxGeometry relative="1" as="geometry" />
        </mxCell>
        <mxCell id="UMjWkie3BbWeerTwhCgO-238" value="dot_control += 1" style="rounded=1;whiteSpace=wrap;html=1;" parent="UMjWkie3BbWeerTwhCgO-221" vertex="1">
          <mxGeometry x="72.13" y="460" width="120" height="60" as="geometry" />
        </mxCell>
        <mxCell id="UMjWkie3BbWeerTwhCgO-244" style="edgeStyle=orthogonalEdgeStyle;rounded=0;orthogonalLoop=1;jettySize=auto;html=1;entryX=0.5;entryY=0;entryDx=0;entryDy=0;" parent="UMjWkie3BbWeerTwhCgO-221" source="UMjWkie3BbWeerTwhCgO-240" target="UMjWkie3BbWeerTwhCgO-243" edge="1">
          <mxGeometry relative="1" as="geometry" />
        </mxCell>
        <mxCell id="UMjWkie3BbWeerTwhCgO-240" value="written_chars += c" style="rounded=1;whiteSpace=wrap;html=1;" parent="UMjWkie3BbWeerTwhCgO-221" vertex="1">
          <mxGeometry x="72.25" y="570" width="120" height="60" as="geometry" />
        </mxCell>
        <mxCell id="UMjWkie3BbWeerTwhCgO-243" value="self.segment.show()" style="rounded=1;whiteSpace=wrap;html=1;" parent="UMjWkie3BbWeerTwhCgO-221" vertex="1">
          <mxGeometry x="72" y="660" width="120" height="60" as="geometry" />
        </mxCell>
        <mxCell id="2q9IEAr4ZzkcC6MikMml-77" value="&lt;div&gt;output error&lt;/div&gt;&lt;div&gt;message&lt;br&gt;&lt;/div&gt;" style="shape=parallelogram;perimeter=parallelogramPerimeter;whiteSpace=wrap;html=1;fixedSize=1;" parent="UMjWkie3BbWeerTwhCgO-221" vertex="1">
          <mxGeometry x="320" y="150" width="120" height="60" as="geometry" />
        </mxCell>
        <mxCell id="UMjWkie3BbWeerTwhCgO-245" value="stop" style="ellipse;whiteSpace=wrap;html=1;fillColor=#f8cecc;strokeColor=#b85450;" parent="WIyWlLk6GJQsqaUBKTNV-1" vertex="1">
          <mxGeometry x="3480" y="1240" width="180" height="80" as="geometry" />
        </mxCell>
        <mxCell id="UMjWkie3BbWeerTwhCgO-247" value="return written_chars, True" style="rounded=1;whiteSpace=wrap;html=1;" parent="WIyWlLk6GJQsqaUBKTNV-1" vertex="1">
          <mxGeometry x="3510" y="1140" width="120" height="60" as="geometry" />
        </mxCell>
        <mxCell id="UMjWkie3BbWeerTwhCgO-248" style="edgeStyle=orthogonalEdgeStyle;rounded=0;orthogonalLoop=1;jettySize=auto;html=1;entryX=0.5;entryY=0;entryDx=0;entryDy=0;" parent="WIyWlLk6GJQsqaUBKTNV-1" source="UMjWkie3BbWeerTwhCgO-247" target="UMjWkie3BbWeerTwhCgO-245" edge="1">
          <mxGeometry relative="1" as="geometry">
            <Array as="points">
              <mxPoint x="3570" y="1240" />
              <mxPoint x="3570" y="1240" />
            </Array>
          </mxGeometry>
        </mxCell>
        <mxCell id="UMjWkie3BbWeerTwhCgO-249" style="edgeStyle=orthogonalEdgeStyle;rounded=0;orthogonalLoop=1;jettySize=auto;html=1;entryX=0.5;entryY=0;entryDx=0;entryDy=0;exitX=1;exitY=0.5;exitDx=0;exitDy=0;" parent="WIyWlLk6GJQsqaUBKTNV-1" source="UMjWkie3BbWeerTwhCgO-228" target="UMjWkie3BbWeerTwhCgO-245" edge="1">
          <mxGeometry relative="1" as="geometry">
            <mxPoint x="3561" y="1230" as="targetPoint" />
            <Array as="points">
              <mxPoint x="4033" y="510" />
              <mxPoint x="4110" y="510" />
              <mxPoint x="4110" y="1210" />
              <mxPoint x="3570" y="1210" />
            </Array>
            <mxPoint x="4032.75" y="510" as="sourcePoint" />
          </mxGeometry>
        </mxCell>
        <mxCell id="UMjWkie3BbWeerTwhCgO-255" style="edgeStyle=orthogonalEdgeStyle;rounded=0;orthogonalLoop=1;jettySize=auto;html=1;entryX=0.5;entryY=0;entryDx=0;entryDy=0;" parent="WIyWlLk6GJQsqaUBKTNV-1" source="UMjWkie3BbWeerTwhCgO-252" target="UMjWkie3BbWeerTwhCgO-254" edge="1">
          <mxGeometry relative="1" as="geometry" />
        </mxCell>
        <mxCell id="UMjWkie3BbWeerTwhCgO-252" value="&lt;div&gt;function&lt;/div&gt;&lt;div&gt;DHT11.stop()&lt;br&gt;&lt;/div&gt;" style="ellipse;whiteSpace=wrap;html=1;fillColor=#d5e8d4;strokeColor=#82b366;" parent="WIyWlLk6GJQsqaUBKTNV-1" vertex="1">
          <mxGeometry x="2990" y="1020" width="179" height="80" as="geometry" />
        </mxCell>
        <mxCell id="UMjWkie3BbWeerTwhCgO-253" value="&lt;h1&gt;DHT11.stop&lt;/h1&gt;&lt;h1&gt;function&lt;/h1&gt;" style="text;html=1;strokeColor=none;fillColor=none;spacing=5;spacingTop=-20;whiteSpace=wrap;overflow=hidden;rounded=0;" parent="WIyWlLk6GJQsqaUBKTNV-1" vertex="1">
          <mxGeometry x="3207" y="980" width="190" height="120" as="geometry" />
        </mxCell>
        <mxCell id="UMjWkie3BbWeerTwhCgO-257" style="edgeStyle=orthogonalEdgeStyle;rounded=0;orthogonalLoop=1;jettySize=auto;html=1;entryX=0.5;entryY=0;entryDx=0;entryDy=0;" parent="WIyWlLk6GJQsqaUBKTNV-1" source="UMjWkie3BbWeerTwhCgO-254" target="UMjWkie3BbWeerTwhCgO-256" edge="1">
          <mxGeometry relative="1" as="geometry" />
        </mxCell>
        <mxCell id="UMjWkie3BbWeerTwhCgO-254" value="self.GPIO.cleanup()" style="rounded=1;whiteSpace=wrap;html=1;" parent="WIyWlLk6GJQsqaUBKTNV-1" vertex="1">
          <mxGeometry x="3020" y="1160" width="120" height="60" as="geometry" />
        </mxCell>
        <mxCell id="UMjWkie3BbWeerTwhCgO-256" value="stop" style="ellipse;whiteSpace=wrap;html=1;fillColor=#f8cecc;strokeColor=#b85450;" parent="WIyWlLk6GJQsqaUBKTNV-1" vertex="1">
          <mxGeometry x="2990" y="1260" width="180" height="80" as="geometry" />
        </mxCell>
        <mxCell id="UMjWkie3BbWeerTwhCgO-258" style="edgeStyle=orthogonalEdgeStyle;rounded=0;orthogonalLoop=1;jettySize=auto;html=1;entryX=0.5;entryY=0;entryDx=0;entryDy=0;" parent="WIyWlLk6GJQsqaUBKTNV-1" source="UMjWkie3BbWeerTwhCgO-259" target="UMjWkie3BbWeerTwhCgO-261" edge="1">
          <mxGeometry relative="1" as="geometry" />
        </mxCell>
        <mxCell id="UMjWkie3BbWeerTwhCgO-259" value="&lt;div&gt;function&lt;/div&gt;&lt;div&gt;Segment.stop()&lt;br&gt;&lt;/div&gt;" style="ellipse;whiteSpace=wrap;html=1;fillColor=#d5e8d4;strokeColor=#82b366;" parent="WIyWlLk6GJQsqaUBKTNV-1" vertex="1">
          <mxGeometry x="3471" y="1390" width="179" height="80" as="geometry" />
        </mxCell>
        <mxCell id="UMjWkie3BbWeerTwhCgO-260" style="edgeStyle=orthogonalEdgeStyle;rounded=0;orthogonalLoop=1;jettySize=auto;html=1;entryX=0.5;entryY=0;entryDx=0;entryDy=0;" parent="WIyWlLk6GJQsqaUBKTNV-1" source="UMjWkie3BbWeerTwhCgO-261" target="UMjWkie3BbWeerTwhCgO-262" edge="1">
          <mxGeometry relative="1" as="geometry" />
        </mxCell>
        <mxCell id="UMjWkie3BbWeerTwhCgO-261" value="self.GPIO.cleanup()" style="rounded=1;whiteSpace=wrap;html=1;" parent="WIyWlLk6GJQsqaUBKTNV-1" vertex="1">
          <mxGeometry x="3501" y="1530" width="120" height="60" as="geometry" />
        </mxCell>
        <mxCell id="UMjWkie3BbWeerTwhCgO-262" value="stop" style="ellipse;whiteSpace=wrap;html=1;fillColor=#f8cecc;strokeColor=#b85450;" parent="WIyWlLk6GJQsqaUBKTNV-1" vertex="1">
          <mxGeometry x="3471" y="1630" width="180" height="80" as="geometry" />
        </mxCell>
        <mxCell id="UMjWkie3BbWeerTwhCgO-263" value="&lt;h1&gt;Segment.stop&lt;/h1&gt;&lt;h1&gt;function&lt;/h1&gt;" style="text;html=1;strokeColor=none;fillColor=none;spacing=5;spacingTop=-20;whiteSpace=wrap;overflow=hidden;rounded=0;" parent="WIyWlLk6GJQsqaUBKTNV-1" vertex="1">
          <mxGeometry x="3700" y="1380" width="190" height="120" as="geometry" />
        </mxCell>
        <mxCell id="2q9IEAr4ZzkcC6MikMml-0" value="&lt;div&gt;Read in&amp;nbsp;&lt;/div&gt;&lt;div&gt;arguments&lt;br&gt;&lt;/div&gt;args = given args" style="shape=parallelogram;perimeter=parallelogramPerimeter;whiteSpace=wrap;html=1;fixedSize=1;" parent="WIyWlLk6GJQsqaUBKTNV-1" vertex="1">
          <mxGeometry x="280" y="380" width="120" height="80" as="geometry" />
        </mxCell>
        <mxCell id="jWEjgLU3ACOmt5xkYZWo-19" style="edgeStyle=orthogonalEdgeStyle;rounded=0;orthogonalLoop=1;jettySize=auto;html=1;entryX=0.5;entryY=0;entryDx=0;entryDy=0;" edge="1" parent="WIyWlLk6GJQsqaUBKTNV-1" source="2q9IEAr4ZzkcC6MikMml-1" target="jWEjgLU3ACOmt5xkYZWo-18">
          <mxGeometry relative="1" as="geometry" />
        </mxCell>
        <mxCell id="2q9IEAr4ZzkcC6MikMml-1" value="&lt;div&gt;Initialize Objects:&lt;/div&gt;&lt;div&gt;segment, env_sensor, lcd, matrix, light_sensor, relay&lt;br&gt;&lt;/div&gt;" style="rounded=1;whiteSpace=wrap;html=1;" parent="WIyWlLk6GJQsqaUBKTNV-1" vertex="1">
          <mxGeometry x="265" y="620" width="150" height="120" as="geometry" />
        </mxCell>
        <mxCell id="jWEjgLU3ACOmt5xkYZWo-14" style="edgeStyle=orthogonalEdgeStyle;rounded=0;orthogonalLoop=1;jettySize=auto;html=1;entryX=0.5;entryY=0;entryDx=0;entryDy=0;" edge="1" parent="WIyWlLk6GJQsqaUBKTNV-1" source="2q9IEAr4ZzkcC6MikMml-7" target="UMjWkie3BbWeerTwhCgO-81">
          <mxGeometry relative="1" as="geometry" />
        </mxCell>
        <mxCell id="2q9IEAr4ZzkcC6MikMml-7" value="&lt;div&gt;Output error&lt;/div&gt;&lt;div&gt;message&lt;/div&gt;" style="shape=parallelogram;perimeter=parallelogramPerimeter;whiteSpace=wrap;html=1;fixedSize=1;" parent="WIyWlLk6GJQsqaUBKTNV-1" vertex="1">
          <mxGeometry x="120" y="1518" width="120" height="80" as="geometry" />
        </mxCell>
        <mxCell id="2q9IEAr4ZzkcC6MikMml-12" style="edgeStyle=orthogonalEdgeStyle;rounded=0;orthogonalLoop=1;jettySize=auto;html=1;entryX=0.5;entryY=0;entryDx=0;entryDy=0;" parent="WIyWlLk6GJQsqaUBKTNV-1" source="2q9IEAr4ZzkcC6MikMml-11" target="2q9IEAr4ZzkcC6MikMml-0" edge="1">
          <mxGeometry relative="1" as="geometry" />
        </mxCell>
        <mxCell id="2q9IEAr4ZzkcC6MikMml-11" value="&lt;div&gt;Initialize Constants:&lt;/div&gt;&lt;div&gt;LX_MAX := 65000&lt;br&gt;&lt;/div&gt;&lt;div&gt;LX_MID := 50000&lt;/div&gt;&lt;div&gt;LX_MIN := 45000&lt;/div&gt;&lt;div&gt;&lt;br&gt;&lt;/div&gt;&lt;div&gt;DAY_START := 06:00&lt;/div&gt;&lt;div&gt;DAY_END := 22:00&lt;/div&gt;&lt;div&gt;&lt;br&gt;&lt;/div&gt;&lt;div&gt;CSV_FILE_NAME := gmu.csv&lt;br&gt;&lt;/div&gt;" style="rounded=1;whiteSpace=wrap;html=1;" parent="WIyWlLk6GJQsqaUBKTNV-1" vertex="1">
          <mxGeometry x="280" y="180" width="120" height="160" as="geometry" />
        </mxCell>
        <mxCell id="2q9IEAr4ZzkcC6MikMml-19" style="edgeStyle=orthogonalEdgeStyle;rounded=0;orthogonalLoop=1;jettySize=auto;html=1;entryX=0;entryY=0.5;entryDx=0;entryDy=0;" parent="WIyWlLk6GJQsqaUBKTNV-1" source="2q9IEAr4ZzkcC6MikMml-15" target="2q9IEAr4ZzkcC6MikMml-18" edge="1">
          <mxGeometry relative="1" as="geometry" />
        </mxCell>
        <mxCell id="2q9IEAr4ZzkcC6MikMml-20" value="true" style="edgeLabel;html=1;align=center;verticalAlign=middle;resizable=0;points=[];" parent="2q9IEAr4ZzkcC6MikMml-19" vertex="1" connectable="0">
          <mxGeometry x="-0.4607" y="2" relative="1" as="geometry">
            <mxPoint x="16" y="-1" as="offset" />
          </mxGeometry>
        </mxCell>
        <mxCell id="2q9IEAr4ZzkcC6MikMml-21" style="edgeStyle=orthogonalEdgeStyle;rounded=0;orthogonalLoop=1;jettySize=auto;html=1;entryX=0.5;entryY=0;entryDx=0;entryDy=0;" parent="WIyWlLk6GJQsqaUBKTNV-1" source="2q9IEAr4ZzkcC6MikMml-15" target="UMjWkie3BbWeerTwhCgO-100" edge="1">
          <mxGeometry relative="1" as="geometry" />
        </mxCell>
        <mxCell id="2q9IEAr4ZzkcC6MikMml-22" value="false" style="edgeLabel;html=1;align=center;verticalAlign=middle;resizable=0;points=[];" parent="2q9IEAr4ZzkcC6MikMml-21" vertex="1" connectable="0">
          <mxGeometry x="-0.1804" relative="1" as="geometry">
            <mxPoint y="-6" as="offset" />
          </mxGeometry>
        </mxCell>
        <mxCell id="2q9IEAr4ZzkcC6MikMml-15" value="light_sensor?" style="rhombus;whiteSpace=wrap;html=1;" parent="WIyWlLk6GJQsqaUBKTNV-1" vertex="1">
          <mxGeometry x="1100" y="520" width="221" height="80" as="geometry" />
        </mxCell>
        <mxCell id="2q9IEAr4ZzkcC6MikMml-23" style="edgeStyle=orthogonalEdgeStyle;rounded=0;orthogonalLoop=1;jettySize=auto;html=1;entryX=0.5;entryY=0;entryDx=0;entryDy=0;" parent="WIyWlLk6GJQsqaUBKTNV-1" source="2q9IEAr4ZzkcC6MikMml-18" target="UMjWkie3BbWeerTwhCgO-100" edge="1">
          <mxGeometry relative="1" as="geometry">
            <Array as="points">
              <mxPoint x="1490" y="620" />
              <mxPoint x="1211" y="620" />
            </Array>
          </mxGeometry>
        </mxCell>
        <mxCell id="2q9IEAr4ZzkcC6MikMml-18" value="&lt;div&gt;light_sensor.update&lt;/div&gt;&lt;div&gt;(5)&lt;/div&gt;" style="shape=process;whiteSpace=wrap;html=1;backgroundOutline=1;" parent="WIyWlLk6GJQsqaUBKTNV-1" vertex="1">
          <mxGeometry x="1410" y="520" width="160" height="80" as="geometry" />
        </mxCell>
        <mxCell id="2q9IEAr4ZzkcC6MikMml-49" style="edgeStyle=orthogonalEdgeStyle;rounded=0;orthogonalLoop=1;jettySize=auto;html=1;entryX=0;entryY=0.5;entryDx=0;entryDy=0;" parent="WIyWlLk6GJQsqaUBKTNV-1" source="2q9IEAr4ZzkcC6MikMml-28" target="2q9IEAr4ZzkcC6MikMml-31" edge="1">
          <mxGeometry relative="1" as="geometry" />
        </mxCell>
        <mxCell id="2q9IEAr4ZzkcC6MikMml-50" value="true" style="edgeLabel;html=1;align=center;verticalAlign=middle;resizable=0;points=[];" parent="2q9IEAr4ZzkcC6MikMml-49" vertex="1" connectable="0">
          <mxGeometry x="-0.0262" y="-1" relative="1" as="geometry">
            <mxPoint as="offset" />
          </mxGeometry>
        </mxCell>
        <mxCell id="2q9IEAr4ZzkcC6MikMml-56" style="edgeStyle=orthogonalEdgeStyle;rounded=0;orthogonalLoop=1;jettySize=auto;html=1;entryX=0.5;entryY=0;entryDx=0;entryDy=0;" parent="WIyWlLk6GJQsqaUBKTNV-1" source="2q9IEAr4ZzkcC6MikMml-28" target="2q9IEAr4ZzkcC6MikMml-55" edge="1">
          <mxGeometry relative="1" as="geometry" />
        </mxCell>
        <mxCell id="2q9IEAr4ZzkcC6MikMml-57" value="false" style="edgeLabel;html=1;align=center;verticalAlign=middle;resizable=0;points=[];" parent="2q9IEAr4ZzkcC6MikMml-56" vertex="1" connectable="0">
          <mxGeometry x="0.0293" y="-1" relative="1" as="geometry">
            <mxPoint as="offset" />
          </mxGeometry>
        </mxCell>
        <mxCell id="2q9IEAr4ZzkcC6MikMml-28" value="matrix?" style="rhombus;whiteSpace=wrap;html=1;" parent="WIyWlLk6GJQsqaUBKTNV-1" vertex="1">
          <mxGeometry x="1101" y="1000" width="220" height="80" as="geometry" />
        </mxCell>
        <mxCell id="2q9IEAr4ZzkcC6MikMml-32" style="edgeStyle=orthogonalEdgeStyle;rounded=0;orthogonalLoop=1;jettySize=auto;html=1;entryX=0.5;entryY=0;entryDx=0;entryDy=0;" parent="WIyWlLk6GJQsqaUBKTNV-1" source="2q9IEAr4ZzkcC6MikMml-31" target="2q9IEAr4ZzkcC6MikMml-34" edge="1">
          <mxGeometry relative="1" as="geometry">
            <mxPoint x="1520" y="1145.68" as="targetPoint" />
          </mxGeometry>
        </mxCell>
        <mxCell id="2q9IEAr4ZzkcC6MikMml-33" value="false" style="edgeLabel;html=1;align=center;verticalAlign=middle;resizable=0;points=[];" parent="2q9IEAr4ZzkcC6MikMml-32" vertex="1" connectable="0">
          <mxGeometry x="-0.2083" y="-1" relative="1" as="geometry">
            <mxPoint as="offset" />
          </mxGeometry>
        </mxCell>
        <mxCell id="2q9IEAr4ZzkcC6MikMml-39" style="edgeStyle=orthogonalEdgeStyle;rounded=0;orthogonalLoop=1;jettySize=auto;html=1;entryX=0;entryY=0.5;entryDx=0;entryDy=0;" parent="WIyWlLk6GJQsqaUBKTNV-1" source="2q9IEAr4ZzkcC6MikMml-31" target="2q9IEAr4ZzkcC6MikMml-35" edge="1">
          <mxGeometry relative="1" as="geometry" />
        </mxCell>
        <mxCell id="2q9IEAr4ZzkcC6MikMml-40" value="false" style="edgeLabel;html=1;align=center;verticalAlign=middle;resizable=0;points=[];" parent="2q9IEAr4ZzkcC6MikMml-39" vertex="1" connectable="0">
          <mxGeometry x="-0.2044" relative="1" as="geometry">
            <mxPoint as="offset" />
          </mxGeometry>
        </mxCell>
        <mxCell id="2q9IEAr4ZzkcC6MikMml-31" value="light &amp;gt; 0 ?" style="rhombus;whiteSpace=wrap;html=1;" parent="WIyWlLk6GJQsqaUBKTNV-1" vertex="1">
          <mxGeometry x="1410" y="1000" width="220" height="80" as="geometry" />
        </mxCell>
        <mxCell id="2q9IEAr4ZzkcC6MikMml-58" style="edgeStyle=orthogonalEdgeStyle;rounded=0;orthogonalLoop=1;jettySize=auto;html=1;entryX=0.5;entryY=0;entryDx=0;entryDy=0;" parent="WIyWlLk6GJQsqaUBKTNV-1" source="2q9IEAr4ZzkcC6MikMml-34" target="2q9IEAr4ZzkcC6MikMml-55" edge="1">
          <mxGeometry relative="1" as="geometry">
            <Array as="points">
              <mxPoint x="1520" y="1260" />
              <mxPoint x="1211" y="1260" />
            </Array>
          </mxGeometry>
        </mxCell>
        <mxCell id="2q9IEAr4ZzkcC6MikMml-34" value="output loading on matrix" style="shape=parallelogram;perimeter=parallelogramPerimeter;whiteSpace=wrap;html=1;fixedSize=1;" parent="WIyWlLk6GJQsqaUBKTNV-1" vertex="1">
          <mxGeometry x="1460" y="1160" width="120" height="80" as="geometry" />
        </mxCell>
        <mxCell id="2q9IEAr4ZzkcC6MikMml-41" style="edgeStyle=orthogonalEdgeStyle;rounded=0;orthogonalLoop=1;jettySize=auto;html=1;entryX=0;entryY=0.5;entryDx=0;entryDy=0;" parent="WIyWlLk6GJQsqaUBKTNV-1" source="2q9IEAr4ZzkcC6MikMml-35" target="2q9IEAr4ZzkcC6MikMml-36" edge="1">
          <mxGeometry relative="1" as="geometry" />
        </mxCell>
        <mxCell id="2q9IEAr4ZzkcC6MikMml-42" value="false" style="edgeLabel;html=1;align=center;verticalAlign=middle;resizable=0;points=[];" parent="2q9IEAr4ZzkcC6MikMml-41" vertex="1" connectable="0">
          <mxGeometry x="-0.1722" y="1" relative="1" as="geometry">
            <mxPoint as="offset" />
          </mxGeometry>
        </mxCell>
        <mxCell id="2q9IEAr4ZzkcC6MikMml-48" style="edgeStyle=orthogonalEdgeStyle;rounded=0;orthogonalLoop=1;jettySize=auto;html=1;entryX=0.5;entryY=0;entryDx=0;entryDy=0;" parent="WIyWlLk6GJQsqaUBKTNV-1" source="2q9IEAr4ZzkcC6MikMml-35" target="2q9IEAr4ZzkcC6MikMml-47" edge="1">
          <mxGeometry relative="1" as="geometry" />
        </mxCell>
        <mxCell id="2q9IEAr4ZzkcC6MikMml-53" value="true" style="edgeLabel;html=1;align=center;verticalAlign=middle;resizable=0;points=[];" parent="2q9IEAr4ZzkcC6MikMml-48" vertex="1" connectable="0">
          <mxGeometry x="-0.1491" y="-1" relative="1" as="geometry">
            <mxPoint as="offset" />
          </mxGeometry>
        </mxCell>
        <mxCell id="2q9IEAr4ZzkcC6MikMml-35" value="LX_MID &amp;gt;= light &amp;gt;= LX_MAX ?" style="rhombus;whiteSpace=wrap;html=1;" parent="WIyWlLk6GJQsqaUBKTNV-1" vertex="1">
          <mxGeometry x="1680" y="1000" width="220" height="80" as="geometry" />
        </mxCell>
        <mxCell id="2q9IEAr4ZzkcC6MikMml-43" style="edgeStyle=orthogonalEdgeStyle;rounded=0;orthogonalLoop=1;jettySize=auto;html=1;entryX=0;entryY=0.5;entryDx=0;entryDy=0;" parent="WIyWlLk6GJQsqaUBKTNV-1" source="2q9IEAr4ZzkcC6MikMml-36" target="2q9IEAr4ZzkcC6MikMml-45" edge="1">
          <mxGeometry relative="1" as="geometry">
            <mxPoint x="2220" y="1040" as="targetPoint" />
          </mxGeometry>
        </mxCell>
        <mxCell id="2q9IEAr4ZzkcC6MikMml-44" value="false" style="edgeLabel;html=1;align=center;verticalAlign=middle;resizable=0;points=[];" parent="2q9IEAr4ZzkcC6MikMml-43" vertex="1" connectable="0">
          <mxGeometry x="-0.1958" y="1" relative="1" as="geometry">
            <mxPoint as="offset" />
          </mxGeometry>
        </mxCell>
        <mxCell id="2q9IEAr4ZzkcC6MikMml-52" style="edgeStyle=orthogonalEdgeStyle;rounded=0;orthogonalLoop=1;jettySize=auto;html=1;entryX=0.5;entryY=0;entryDx=0;entryDy=0;" parent="WIyWlLk6GJQsqaUBKTNV-1" source="2q9IEAr4ZzkcC6MikMml-36" target="2q9IEAr4ZzkcC6MikMml-51" edge="1">
          <mxGeometry relative="1" as="geometry" />
        </mxCell>
        <mxCell id="2q9IEAr4ZzkcC6MikMml-54" value="true" style="edgeLabel;html=1;align=center;verticalAlign=middle;resizable=0;points=[];" parent="2q9IEAr4ZzkcC6MikMml-52" vertex="1" connectable="0">
          <mxGeometry x="-0.0194" y="1" relative="1" as="geometry">
            <mxPoint y="-5" as="offset" />
          </mxGeometry>
        </mxCell>
        <mxCell id="2q9IEAr4ZzkcC6MikMml-36" value="LX_MIN &amp;gt;= light &amp;gt;= LX_MID ?" style="rhombus;whiteSpace=wrap;html=1;" parent="WIyWlLk6GJQsqaUBKTNV-1" vertex="1">
          <mxGeometry x="1958" y="1000" width="220" height="80" as="geometry" />
        </mxCell>
        <mxCell id="2q9IEAr4ZzkcC6MikMml-61" style="edgeStyle=orthogonalEdgeStyle;rounded=0;orthogonalLoop=1;jettySize=auto;html=1;entryX=0.5;entryY=0;entryDx=0;entryDy=0;" parent="WIyWlLk6GJQsqaUBKTNV-1" source="2q9IEAr4ZzkcC6MikMml-45" target="2q9IEAr4ZzkcC6MikMml-55" edge="1">
          <mxGeometry relative="1" as="geometry">
            <Array as="points">
              <mxPoint x="2280" y="1260" />
              <mxPoint x="1211" y="1260" />
            </Array>
          </mxGeometry>
        </mxCell>
        <mxCell id="2q9IEAr4ZzkcC6MikMml-45" value="&lt;div&gt;output bad&amp;nbsp;&lt;/div&gt;&lt;div&gt;smiley on matrix&lt;br&gt;&lt;/div&gt;" style="shape=parallelogram;perimeter=parallelogramPerimeter;whiteSpace=wrap;html=1;fixedSize=1;" parent="WIyWlLk6GJQsqaUBKTNV-1" vertex="1">
          <mxGeometry x="2220" y="1000" width="120" height="80" as="geometry" />
        </mxCell>
        <mxCell id="2q9IEAr4ZzkcC6MikMml-59" style="edgeStyle=orthogonalEdgeStyle;rounded=0;orthogonalLoop=1;jettySize=auto;html=1;entryX=0.5;entryY=0;entryDx=0;entryDy=0;" parent="WIyWlLk6GJQsqaUBKTNV-1" source="2q9IEAr4ZzkcC6MikMml-47" target="2q9IEAr4ZzkcC6MikMml-55" edge="1">
          <mxGeometry relative="1" as="geometry">
            <Array as="points">
              <mxPoint x="1790" y="1260" />
              <mxPoint x="1211" y="1260" />
            </Array>
          </mxGeometry>
        </mxCell>
        <mxCell id="2q9IEAr4ZzkcC6MikMml-47" value="&lt;div&gt;output good&lt;/div&gt;&lt;div&gt;smiley on matrix&lt;/div&gt;" style="shape=parallelogram;perimeter=parallelogramPerimeter;whiteSpace=wrap;html=1;fixedSize=1;" parent="WIyWlLk6GJQsqaUBKTNV-1" vertex="1">
          <mxGeometry x="1730" y="1160" width="120" height="80" as="geometry" />
        </mxCell>
        <mxCell id="2q9IEAr4ZzkcC6MikMml-60" style="edgeStyle=orthogonalEdgeStyle;rounded=0;orthogonalLoop=1;jettySize=auto;html=1;entryX=0.5;entryY=0;entryDx=0;entryDy=0;" parent="WIyWlLk6GJQsqaUBKTNV-1" source="2q9IEAr4ZzkcC6MikMml-51" target="2q9IEAr4ZzkcC6MikMml-55" edge="1">
          <mxGeometry relative="1" as="geometry">
            <Array as="points">
              <mxPoint x="2068" y="1260" />
              <mxPoint x="1211" y="1260" />
            </Array>
          </mxGeometry>
        </mxCell>
        <mxCell id="2q9IEAr4ZzkcC6MikMml-51" value="&lt;div&gt;output good&lt;/div&gt;&lt;div&gt;smiley on matrix&lt;/div&gt;" style="shape=parallelogram;perimeter=parallelogramPerimeter;whiteSpace=wrap;html=1;fixedSize=1;" parent="WIyWlLk6GJQsqaUBKTNV-1" vertex="1">
          <mxGeometry x="2008" y="1160" width="120" height="80" as="geometry" />
        </mxCell>
        <mxCell id="2q9IEAr4ZzkcC6MikMml-62" style="edgeStyle=orthogonalEdgeStyle;rounded=0;orthogonalLoop=1;jettySize=auto;html=1;entryX=0;entryY=0.5;entryDx=0;entryDy=0;" parent="WIyWlLk6GJQsqaUBKTNV-1" source="2q9IEAr4ZzkcC6MikMml-55" target="2q9IEAr4ZzkcC6MikMml-64" edge="1">
          <mxGeometry relative="1" as="geometry">
            <mxPoint x="1380" y="1320" as="targetPoint" />
          </mxGeometry>
        </mxCell>
        <mxCell id="2q9IEAr4ZzkcC6MikMml-63" value="true" style="edgeLabel;html=1;align=center;verticalAlign=middle;resizable=0;points=[];" parent="2q9IEAr4ZzkcC6MikMml-62" vertex="1" connectable="0">
          <mxGeometry x="-0.0474" y="-1" relative="1" as="geometry">
            <mxPoint y="-3" as="offset" />
          </mxGeometry>
        </mxCell>
        <mxCell id="2q9IEAr4ZzkcC6MikMml-67" style="edgeStyle=orthogonalEdgeStyle;rounded=0;orthogonalLoop=1;jettySize=auto;html=1;entryX=0.5;entryY=0;entryDx=0;entryDy=0;" parent="WIyWlLk6GJQsqaUBKTNV-1" source="2q9IEAr4ZzkcC6MikMml-55" target="UMjWkie3BbWeerTwhCgO-135" edge="1">
          <mxGeometry relative="1" as="geometry" />
        </mxCell>
        <mxCell id="2q9IEAr4ZzkcC6MikMml-68" value="false" style="edgeLabel;html=1;align=center;verticalAlign=middle;resizable=0;points=[];" parent="2q9IEAr4ZzkcC6MikMml-67" vertex="1" connectable="0">
          <mxGeometry x="-0.0648" relative="1" as="geometry">
            <mxPoint y="-12" as="offset" />
          </mxGeometry>
        </mxCell>
        <mxCell id="2q9IEAr4ZzkcC6MikMml-55" value="lcd?" style="rhombus;whiteSpace=wrap;html=1;" parent="WIyWlLk6GJQsqaUBKTNV-1" vertex="1">
          <mxGeometry x="1101" y="1280" width="220" height="80" as="geometry" />
        </mxCell>
        <mxCell id="2q9IEAr4ZzkcC6MikMml-69" style="edgeStyle=orthogonalEdgeStyle;rounded=0;orthogonalLoop=1;jettySize=auto;html=1;entryX=0.5;entryY=0;entryDx=0;entryDy=0;" parent="WIyWlLk6GJQsqaUBKTNV-1" source="2q9IEAr4ZzkcC6MikMml-64" target="UMjWkie3BbWeerTwhCgO-135" edge="1">
          <mxGeometry relative="1" as="geometry">
            <Array as="points">
              <mxPoint x="1460" y="1390" />
              <mxPoint x="1211" y="1390" />
            </Array>
          </mxGeometry>
        </mxCell>
        <mxCell id="2q9IEAr4ZzkcC6MikMml-64" value="&lt;div&gt;output hum and&lt;/div&gt;&lt;div&gt;temp on LCD&lt;/div&gt;&lt;div&gt;screen&lt;br&gt; &lt;/div&gt;" style="shape=parallelogram;perimeter=parallelogramPerimeter;whiteSpace=wrap;html=1;fixedSize=1;" parent="WIyWlLk6GJQsqaUBKTNV-1" vertex="1">
          <mxGeometry x="1400" y="1280" width="120" height="80" as="geometry" />
        </mxCell>
        <mxCell id="2q9IEAr4ZzkcC6MikMml-81" style="edgeStyle=orthogonalEdgeStyle;rounded=0;orthogonalLoop=1;jettySize=auto;html=1;entryX=0.5;entryY=0;entryDx=0;entryDy=0;" parent="WIyWlLk6GJQsqaUBKTNV-1" source="2q9IEAr4ZzkcC6MikMml-82" target="2q9IEAr4ZzkcC6MikMml-84" edge="1">
          <mxGeometry relative="1" as="geometry" />
        </mxCell>
        <mxCell id="2q9IEAr4ZzkcC6MikMml-82" value="&lt;div&gt;function&lt;/div&gt;&lt;div&gt;Matrix.show(status)&lt;br&gt;&lt;/div&gt;" style="ellipse;whiteSpace=wrap;html=1;fillColor=#d5e8d4;strokeColor=#82b366;" parent="WIyWlLk6GJQsqaUBKTNV-1" vertex="1">
          <mxGeometry x="2630" y="1880" width="179" height="80" as="geometry" />
        </mxCell>
        <mxCell id="2q9IEAr4ZzkcC6MikMml-83" value="&lt;h1&gt;Matrix.show function&lt;/h1&gt;" style="text;html=1;strokeColor=none;fillColor=none;spacing=5;spacingTop=-20;whiteSpace=wrap;overflow=hidden;rounded=0;" parent="WIyWlLk6GJQsqaUBKTNV-1" vertex="1">
          <mxGeometry x="2870" y="1850" width="190" height="120" as="geometry" />
        </mxCell>
        <mxCell id="2q9IEAr4ZzkcC6MikMml-86" style="edgeStyle=orthogonalEdgeStyle;rounded=0;orthogonalLoop=1;jettySize=auto;html=1;entryX=0.5;entryY=0;entryDx=0;entryDy=0;" parent="WIyWlLk6GJQsqaUBKTNV-1" source="2q9IEAr4ZzkcC6MikMml-84" target="2q9IEAr4ZzkcC6MikMml-85" edge="1">
          <mxGeometry relative="1" as="geometry" />
        </mxCell>
        <mxCell id="2q9IEAr4ZzkcC6MikMml-84" value="Turn on 8x8 Matrix" style="rounded=1;whiteSpace=wrap;html=1;" parent="WIyWlLk6GJQsqaUBKTNV-1" vertex="1">
          <mxGeometry x="2659.5" y="2000" width="120" height="60" as="geometry" />
        </mxCell>
        <mxCell id="2q9IEAr4ZzkcC6MikMml-88" style="edgeStyle=orthogonalEdgeStyle;rounded=0;orthogonalLoop=1;jettySize=auto;html=1;entryX=0.5;entryY=0;entryDx=0;entryDy=0;" parent="WIyWlLk6GJQsqaUBKTNV-1" source="2q9IEAr4ZzkcC6MikMml-85" target="2q9IEAr4ZzkcC6MikMml-87" edge="1">
          <mxGeometry relative="1" as="geometry" />
        </mxCell>
        <mxCell id="2q9IEAr4ZzkcC6MikMml-85" value="&lt;div&gt;Matrix._control_led_matrix&lt;/div&gt;&lt;div&gt;(status)&lt;/div&gt;" style="rounded=1;whiteSpace=wrap;html=1;" parent="WIyWlLk6GJQsqaUBKTNV-1" vertex="1">
          <mxGeometry x="2639.25" y="2100" width="160.5" height="60" as="geometry" />
        </mxCell>
        <mxCell id="2q9IEAr4ZzkcC6MikMml-87" value="stop" style="ellipse;whiteSpace=wrap;html=1;fillColor=#f8cecc;strokeColor=#b85450;" parent="WIyWlLk6GJQsqaUBKTNV-1" vertex="1">
          <mxGeometry x="2630" y="2200" width="180" height="80" as="geometry" />
        </mxCell>
        <mxCell id="2q9IEAr4ZzkcC6MikMml-89" style="edgeStyle=orthogonalEdgeStyle;rounded=0;orthogonalLoop=1;jettySize=auto;html=1;entryX=0.5;entryY=0;entryDx=0;entryDy=0;exitX=0.5;exitY=1;exitDx=0;exitDy=0;" parent="WIyWlLk6GJQsqaUBKTNV-1" source="2q9IEAr4ZzkcC6MikMml-90" target="2q9IEAr4ZzkcC6MikMml-93" edge="1">
          <mxGeometry relative="1" as="geometry">
            <mxPoint x="2719.5" y="2460" as="sourcePoint" />
          </mxGeometry>
        </mxCell>
        <mxCell id="2q9IEAr4ZzkcC6MikMml-90" value="&lt;div&gt;function&lt;/div&gt;&lt;div&gt;Matrix._control_led_matrix(status)&lt;br&gt;&lt;/div&gt;" style="ellipse;whiteSpace=wrap;html=1;fillColor=#d5e8d4;strokeColor=#82b366;" parent="WIyWlLk6GJQsqaUBKTNV-1" vertex="1">
          <mxGeometry x="2609.5" y="2390" width="220" height="80" as="geometry" />
        </mxCell>
        <mxCell id="2q9IEAr4ZzkcC6MikMml-91" value="&lt;h1&gt;Matrix._control_led_matrix function&lt;br&gt;&lt;/h1&gt;" style="text;html=1;strokeColor=none;fillColor=none;spacing=5;spacingTop=-20;whiteSpace=wrap;overflow=hidden;rounded=0;" parent="WIyWlLk6GJQsqaUBKTNV-1" vertex="1">
          <mxGeometry x="2870" y="2365" width="330" height="75" as="geometry" />
        </mxCell>
        <mxCell id="2q9IEAr4ZzkcC6MikMml-92" style="edgeStyle=orthogonalEdgeStyle;rounded=0;orthogonalLoop=1;jettySize=auto;html=1;entryX=0.5;entryY=0;entryDx=0;entryDy=0;" parent="WIyWlLk6GJQsqaUBKTNV-1" source="2q9IEAr4ZzkcC6MikMml-93" target="2q9IEAr4ZzkcC6MikMml-95" edge="1">
          <mxGeometry relative="1" as="geometry" />
        </mxCell>
        <mxCell id="2q9IEAr4ZzkcC6MikMml-93" value="initialize canvas object as draw" style="rounded=1;whiteSpace=wrap;html=1;" parent="WIyWlLk6GJQsqaUBKTNV-1" vertex="1">
          <mxGeometry x="2659.5" y="2515" width="120" height="60" as="geometry" />
        </mxCell>
        <mxCell id="2q9IEAr4ZzkcC6MikMml-97" style="edgeStyle=orthogonalEdgeStyle;rounded=0;orthogonalLoop=1;jettySize=auto;html=1;entryX=0.5;entryY=0;entryDx=0;entryDy=0;" parent="WIyWlLk6GJQsqaUBKTNV-1" source="2q9IEAr4ZzkcC6MikMml-95" target="2q9IEAr4ZzkcC6MikMml-96" edge="1">
          <mxGeometry relative="1" as="geometry" />
        </mxCell>
        <mxCell id="2q9IEAr4ZzkcC6MikMml-95" value="draw given status symbol" style="rounded=1;whiteSpace=wrap;html=1;" parent="WIyWlLk6GJQsqaUBKTNV-1" vertex="1">
          <mxGeometry x="2639.25" y="2615" width="160.5" height="60" as="geometry" />
        </mxCell>
        <mxCell id="2q9IEAr4ZzkcC6MikMml-96" value="stop" style="ellipse;whiteSpace=wrap;html=1;fillColor=#f8cecc;strokeColor=#b85450;" parent="WIyWlLk6GJQsqaUBKTNV-1" vertex="1">
          <mxGeometry x="2629.5" y="2720" width="180" height="80" as="geometry" />
        </mxCell>
        <mxCell id="2q9IEAr4ZzkcC6MikMml-98" style="edgeStyle=orthogonalEdgeStyle;rounded=0;orthogonalLoop=1;jettySize=auto;html=1;entryX=0.5;entryY=0;entryDx=0;entryDy=0;" parent="WIyWlLk6GJQsqaUBKTNV-1" source="2q9IEAr4ZzkcC6MikMml-99" target="2q9IEAr4ZzkcC6MikMml-102" edge="1">
          <mxGeometry relative="1" as="geometry" />
        </mxCell>
        <mxCell id="2q9IEAr4ZzkcC6MikMml-99" value="&lt;div&gt;function&lt;/div&gt;&lt;div&gt;Lcd.msg(text)&lt;br&gt;&lt;/div&gt;" style="ellipse;whiteSpace=wrap;html=1;fillColor=#d5e8d4;strokeColor=#82b366;" parent="WIyWlLk6GJQsqaUBKTNV-1" vertex="1">
          <mxGeometry x="3280" y="1880" width="179" height="80" as="geometry" />
        </mxCell>
        <mxCell id="2q9IEAr4ZzkcC6MikMml-100" value="&lt;h1&gt;Lcd.msg function&lt;/h1&gt;" style="text;html=1;strokeColor=none;fillColor=none;spacing=5;spacingTop=-20;whiteSpace=wrap;overflow=hidden;rounded=0;" parent="WIyWlLk6GJQsqaUBKTNV-1" vertex="1">
          <mxGeometry x="3520" y="1850" width="190" height="120" as="geometry" />
        </mxCell>
        <mxCell id="2q9IEAr4ZzkcC6MikMml-101" style="edgeStyle=orthogonalEdgeStyle;rounded=0;orthogonalLoop=1;jettySize=auto;html=1;entryX=0.5;entryY=0;entryDx=0;entryDy=0;" parent="WIyWlLk6GJQsqaUBKTNV-1" source="2q9IEAr4ZzkcC6MikMml-102" target="2q9IEAr4ZzkcC6MikMml-104" edge="1">
          <mxGeometry relative="1" as="geometry" />
        </mxCell>
        <mxCell id="2q9IEAr4ZzkcC6MikMml-102" value="clear LCD screen" style="rounded=1;whiteSpace=wrap;html=1;" parent="WIyWlLk6GJQsqaUBKTNV-1" vertex="1">
          <mxGeometry x="3309.5" y="2000" width="120" height="60" as="geometry" />
        </mxCell>
        <mxCell id="2q9IEAr4ZzkcC6MikMml-103" style="edgeStyle=orthogonalEdgeStyle;rounded=0;orthogonalLoop=1;jettySize=auto;html=1;entryX=0.5;entryY=0;entryDx=0;entryDy=0;" parent="WIyWlLk6GJQsqaUBKTNV-1" source="2q9IEAr4ZzkcC6MikMml-104" target="2q9IEAr4ZzkcC6MikMml-105" edge="1">
          <mxGeometry relative="1" as="geometry" />
        </mxCell>
        <mxCell id="2q9IEAr4ZzkcC6MikMml-104" value="set message on LCD screen" style="rounded=1;whiteSpace=wrap;html=1;" parent="WIyWlLk6GJQsqaUBKTNV-1" vertex="1">
          <mxGeometry x="3289.25" y="2100" width="160.5" height="60" as="geometry" />
        </mxCell>
        <mxCell id="2q9IEAr4ZzkcC6MikMml-105" value="stop" style="ellipse;whiteSpace=wrap;html=1;fillColor=#f8cecc;strokeColor=#b85450;" parent="WIyWlLk6GJQsqaUBKTNV-1" vertex="1">
          <mxGeometry x="3279" y="2210" width="180" height="80" as="geometry" />
        </mxCell>
        <mxCell id="jWEjgLU3ACOmt5xkYZWo-6" value="Exception Statement: KeyboardInterrupt" style="swimlane;whiteSpace=wrap;html=1;" vertex="1" parent="WIyWlLk6GJQsqaUBKTNV-1">
          <mxGeometry x="12.5" y="900" width="655" height="580" as="geometry" />
        </mxCell>
        <mxCell id="jWEjgLU3ACOmt5xkYZWo-16" style="edgeStyle=orthogonalEdgeStyle;rounded=0;orthogonalLoop=1;jettySize=auto;html=1;entryX=0.5;entryY=0;entryDx=0;entryDy=0;exitX=0;exitY=0.5;exitDx=0;exitDy=0;" edge="1" parent="jWEjgLU3ACOmt5xkYZWo-6" source="UMjWkie3BbWeerTwhCgO-62" target="jWEjgLU3ACOmt5xkYZWo-2">
          <mxGeometry relative="1" as="geometry" />
        </mxCell>
        <mxCell id="jWEjgLU3ACOmt5xkYZWo-17" value="true" style="edgeLabel;html=1;align=center;verticalAlign=middle;resizable=0;points=[];" vertex="1" connectable="0" parent="jWEjgLU3ACOmt5xkYZWo-16">
          <mxGeometry x="-0.6761" y="-1" relative="1" as="geometry">
            <mxPoint as="offset" />
          </mxGeometry>
        </mxCell>
        <mxCell id="UMjWkie3BbWeerTwhCgO-62" value="Loop?" style="rhombus;whiteSpace=wrap;html=1;" parent="jWEjgLU3ACOmt5xkYZWo-6" vertex="1">
          <mxGeometry x="262.5" y="27.5" width="130" height="78.63" as="geometry" />
        </mxCell>
        <mxCell id="jWEjgLU3ACOmt5xkYZWo-2" value="infinite loop" style="swimlane;whiteSpace=wrap;html=1;" vertex="1" parent="jWEjgLU3ACOmt5xkYZWo-6">
          <mxGeometry x="37.5" y="136.81000000000017" width="275" height="271.37" as="geometry">
            <mxRectangle x="300" y="1530" width="170" height="30" as="alternateBounds" />
          </mxGeometry>
        </mxCell>
        <mxCell id="UMjWkie3BbWeerTwhCgO-70" style="edgeStyle=orthogonalEdgeStyle;rounded=0;orthogonalLoop=1;jettySize=auto;html=1;entryX=0.5;entryY=0;entryDx=0;entryDy=0;" parent="jWEjgLU3ACOmt5xkYZWo-2" source="UMjWkie3BbWeerTwhCgO-67" target="UMjWkie3BbWeerTwhCgO-69" edge="1">
          <mxGeometry relative="1" as="geometry" />
        </mxCell>
        <mxCell id="UMjWkie3BbWeerTwhCgO-67" value="&lt;div&gt;main function&lt;br&gt;&lt;/div&gt;&lt;div&gt;(env_sensor, light_sensor, lcd, matrix, segment, args.HUM, args.TEMP, csv)&lt;/div&gt;" style="shape=process;whiteSpace=wrap;html=1;backgroundOutline=1;" parent="jWEjgLU3ACOmt5xkYZWo-2" vertex="1">
          <mxGeometry x="10" y="50.36999999999989" width="255" height="80" as="geometry" />
        </mxCell>
        <mxCell id="UMjWkie3BbWeerTwhCgO-69" value="wait for update_time" style="rounded=1;whiteSpace=wrap;html=1;" parent="jWEjgLU3ACOmt5xkYZWo-2" vertex="1">
          <mxGeometry x="77.5" y="170.3699999999999" width="120" height="80" as="geometry" />
        </mxCell>
        <mxCell id="UMjWkie3BbWeerTwhCgO-77" value="loop for given iterations" style="swimlane;whiteSpace=wrap;html=1;" parent="jWEjgLU3ACOmt5xkYZWo-6" vertex="1">
          <mxGeometry x="347.5" y="136.80999999999995" width="275" height="271.37" as="geometry">
            <mxRectangle x="300" y="1530" width="170" height="30" as="alternateBounds" />
          </mxGeometry>
        </mxCell>
        <mxCell id="jWEjgLU3ACOmt5xkYZWo-32" style="edgeStyle=orthogonalEdgeStyle;rounded=0;orthogonalLoop=1;jettySize=auto;html=1;entryX=0.5;entryY=0;entryDx=0;entryDy=0;" edge="1" parent="UMjWkie3BbWeerTwhCgO-77" source="UMjWkie3BbWeerTwhCgO-78" target="UMjWkie3BbWeerTwhCgO-79">
          <mxGeometry relative="1" as="geometry" />
        </mxCell>
        <mxCell id="UMjWkie3BbWeerTwhCgO-78" value="&lt;div&gt;main function&lt;br&gt;&lt;/div&gt;(env_sensor, light_sensor, lcd, matrix, segment, args.HUM, args.TEMP, csv)" style="shape=process;whiteSpace=wrap;html=1;backgroundOutline=1;" parent="UMjWkie3BbWeerTwhCgO-77" vertex="1">
          <mxGeometry x="10" y="50" width="255" height="82.19" as="geometry" />
        </mxCell>
        <mxCell id="UMjWkie3BbWeerTwhCgO-79" value="wait for update_time" style="rounded=1;whiteSpace=wrap;html=1;" parent="UMjWkie3BbWeerTwhCgO-77" vertex="1">
          <mxGeometry x="77.5" y="170" width="120" height="80" as="geometry" />
        </mxCell>
        <mxCell id="UMjWkie3BbWeerTwhCgO-73" style="edgeStyle=orthogonalEdgeStyle;rounded=0;orthogonalLoop=1;jettySize=auto;html=1;exitX=1;exitY=0.5;exitDx=0;exitDy=0;entryX=0.5;entryY=0;entryDx=0;entryDy=0;" parent="jWEjgLU3ACOmt5xkYZWo-6" source="UMjWkie3BbWeerTwhCgO-62" target="UMjWkie3BbWeerTwhCgO-77" edge="1">
          <mxGeometry relative="1" as="geometry">
            <mxPoint x="475" y="136.81000000000017" as="targetPoint" />
          </mxGeometry>
        </mxCell>
        <mxCell id="UMjWkie3BbWeerTwhCgO-74" value="false" style="edgeLabel;html=1;align=center;verticalAlign=middle;resizable=0;points=[];" parent="UMjWkie3BbWeerTwhCgO-73" vertex="1" connectable="0">
          <mxGeometry x="-0.4977" y="-2" relative="1" as="geometry">
            <mxPoint x="-16" y="-4" as="offset" />
          </mxGeometry>
        </mxCell>
        <mxCell id="UMjWkie3BbWeerTwhCgO-51" value="&lt;div&gt;exception &quot;KeyboardInterrupt&quot;&lt;/div&gt;&lt;div&gt;occurs&lt;br&gt;&lt;/div&gt;" style="rhombus;whiteSpace=wrap;html=1;" parent="jWEjgLU3ACOmt5xkYZWo-6" vertex="1">
          <mxGeometry x="220" y="432.5" width="221" height="80" as="geometry" />
        </mxCell>
        <mxCell id="jWEjgLU3ACOmt5xkYZWo-15" style="edgeStyle=orthogonalEdgeStyle;rounded=0;orthogonalLoop=1;jettySize=auto;html=1;entryX=0.5;entryY=0;entryDx=0;entryDy=0;exitX=0.5;exitY=1;exitDx=0;exitDy=0;" edge="1" parent="WIyWlLk6GJQsqaUBKTNV-1" source="UMjWkie3BbWeerTwhCgO-77" target="UMjWkie3BbWeerTwhCgO-81">
          <mxGeometry relative="1" as="geometry">
            <mxPoint x="475" y="1314.6799999999998" as="sourcePoint" />
            <mxPoint x="340" y="1659" as="targetPoint" />
            <Array as="points">
              <mxPoint x="498" y="1559" />
              <mxPoint x="340" y="1559" />
            </Array>
          </mxGeometry>
        </mxCell>
        <mxCell id="jWEjgLU3ACOmt5xkYZWo-20" style="edgeStyle=orthogonalEdgeStyle;rounded=0;orthogonalLoop=1;jettySize=auto;html=1;entryX=0.5;entryY=0;entryDx=0;entryDy=0;" edge="1" parent="WIyWlLk6GJQsqaUBKTNV-1" source="jWEjgLU3ACOmt5xkYZWo-18" target="jWEjgLU3ACOmt5xkYZWo-6">
          <mxGeometry relative="1" as="geometry" />
        </mxCell>
        <mxCell id="jWEjgLU3ACOmt5xkYZWo-18" value="init_csv()" style="shape=process;whiteSpace=wrap;html=1;backgroundOutline=1;" vertex="1" parent="WIyWlLk6GJQsqaUBKTNV-1">
          <mxGeometry x="280" y="790" width="120" height="60" as="geometry" />
        </mxCell>
        <mxCell id="jWEjgLU3ACOmt5xkYZWo-31" style="edgeStyle=orthogonalEdgeStyle;rounded=0;orthogonalLoop=1;jettySize=auto;html=1;entryX=0.5;entryY=0;entryDx=0;entryDy=0;" edge="1" parent="WIyWlLk6GJQsqaUBKTNV-1" source="jWEjgLU3ACOmt5xkYZWo-21" target="UMjWkie3BbWeerTwhCgO-133">
          <mxGeometry relative="1" as="geometry" />
        </mxCell>
        <mxCell id="jWEjgLU3ACOmt5xkYZWo-21" value="write_to_csv(temp, hum, light, light_status, relay)" style="shape=process;whiteSpace=wrap;html=1;backgroundOutline=1;" vertex="1" parent="WIyWlLk6GJQsqaUBKTNV-1">
          <mxGeometry x="1100.5" y="2240" width="220" height="120" as="geometry" />
        </mxCell>
        <mxCell id="jWEjgLU3ACOmt5xkYZWo-24" style="edgeStyle=orthogonalEdgeStyle;rounded=0;orthogonalLoop=1;jettySize=auto;html=1;entryX=0;entryY=0.5;entryDx=0;entryDy=0;" edge="1" parent="WIyWlLk6GJQsqaUBKTNV-1" source="jWEjgLU3ACOmt5xkYZWo-22" target="jWEjgLU3ACOmt5xkYZWo-23">
          <mxGeometry relative="1" as="geometry" />
        </mxCell>
        <mxCell id="jWEjgLU3ACOmt5xkYZWo-25" value="true" style="edgeLabel;html=1;align=center;verticalAlign=middle;resizable=0;points=[];" vertex="1" connectable="0" parent="jWEjgLU3ACOmt5xkYZWo-24">
          <mxGeometry x="-0.1689" y="-1" relative="1" as="geometry">
            <mxPoint as="offset" />
          </mxGeometry>
        </mxCell>
        <mxCell id="jWEjgLU3ACOmt5xkYZWo-27" style="edgeStyle=orthogonalEdgeStyle;rounded=0;orthogonalLoop=1;jettySize=auto;html=1;entryX=1;entryY=0.5;entryDx=0;entryDy=0;" edge="1" parent="WIyWlLk6GJQsqaUBKTNV-1" source="jWEjgLU3ACOmt5xkYZWo-22" target="jWEjgLU3ACOmt5xkYZWo-26">
          <mxGeometry relative="1" as="geometry" />
        </mxCell>
        <mxCell id="jWEjgLU3ACOmt5xkYZWo-28" value="false" style="edgeLabel;html=1;align=center;verticalAlign=middle;resizable=0;points=[];" vertex="1" connectable="0" parent="jWEjgLU3ACOmt5xkYZWo-27">
          <mxGeometry x="-0.3185" y="2" relative="1" as="geometry">
            <mxPoint as="offset" />
          </mxGeometry>
        </mxCell>
        <mxCell id="jWEjgLU3ACOmt5xkYZWo-22" value="is day AND light status is bad" style="rhombus;whiteSpace=wrap;html=1;" vertex="1" parent="WIyWlLk6GJQsqaUBKTNV-1">
          <mxGeometry x="1076.5" y="1990" width="269" height="110" as="geometry" />
        </mxCell>
        <mxCell id="jWEjgLU3ACOmt5xkYZWo-30" style="edgeStyle=orthogonalEdgeStyle;rounded=0;orthogonalLoop=1;jettySize=auto;html=1;entryX=0.5;entryY=0;entryDx=0;entryDy=0;" edge="1" parent="WIyWlLk6GJQsqaUBKTNV-1" source="jWEjgLU3ACOmt5xkYZWo-23" target="jWEjgLU3ACOmt5xkYZWo-21">
          <mxGeometry relative="1" as="geometry">
            <Array as="points">
              <mxPoint x="1510" y="2140" />
              <mxPoint x="1210" y="2140" />
              <mxPoint x="1210" y="2240" />
            </Array>
          </mxGeometry>
        </mxCell>
        <mxCell id="jWEjgLU3ACOmt5xkYZWo-23" value="open relay" style="shape=process;whiteSpace=wrap;html=1;backgroundOutline=1;" vertex="1" parent="WIyWlLk6GJQsqaUBKTNV-1">
          <mxGeometry x="1450" y="2015" width="120" height="60" as="geometry" />
        </mxCell>
        <mxCell id="jWEjgLU3ACOmt5xkYZWo-29" style="edgeStyle=orthogonalEdgeStyle;rounded=0;orthogonalLoop=1;jettySize=auto;html=1;entryX=0.5;entryY=0;entryDx=0;entryDy=0;" edge="1" parent="WIyWlLk6GJQsqaUBKTNV-1" source="jWEjgLU3ACOmt5xkYZWo-26" target="jWEjgLU3ACOmt5xkYZWo-21">
          <mxGeometry relative="1" as="geometry">
            <Array as="points">
              <mxPoint x="920" y="2140" />
              <mxPoint x="1210" y="2140" />
              <mxPoint x="1210" y="2240" />
            </Array>
          </mxGeometry>
        </mxCell>
        <mxCell id="jWEjgLU3ACOmt5xkYZWo-26" value="close relay" style="shape=process;whiteSpace=wrap;html=1;backgroundOutline=1;" vertex="1" parent="WIyWlLk6GJQsqaUBKTNV-1">
          <mxGeometry x="860" y="2015" width="120" height="60" as="geometry" />
        </mxCell>
      </root>
    </mxGraphModel>
  </diagram>
</mxfile>
